<svg xmlns="http://www.w3.org/2000/svg" version="1.1" xmlns:xlink="http://www.w3.org/1999/xlink" width="512" height="512" x="0" y="0" viewBox="0 0 512 512" style="enable-background:new 0 0 512 512" xml:space="preserve" class=""><g><path fill="#beb9dd" fill-rule="evenodd" d="M168.818 478.236V151.981L19.165 162.289h-.176v312.856a3.091 3.091 0 0 0 3.091 3.091zM492.835 162.289l-149.652-10.308v326.255H489.92a3.091 3.091 0 0 0 3.091-3.091V162.289c-.059 0-.117.029-.176 0z" clip-rule="evenodd" opacity="1" data-original="#beb9dd"></path><path fill="#eb5468" fill-rule="evenodd" d="M353.543 124.044v38.245h139.468c10.448-.088 18.989-8.639 18.989-19.123 0-10.513-8.629-19.123-19.165-19.123H353.543z" clip-rule="evenodd" opacity="1" data-original="#eb5468"></path><path fill="#a7a2d3" fill-rule="evenodd" d="M18.989 186.185H125.41c15.32 0 12.708 7.965 12.708 23.427v268.623h20.339V162.289H18.989z" clip-rule="evenodd" opacity="1" data-original="#a7a2d3"></path><path fill="#e5384f" fill-rule="evenodd" d="M486.437 143.166c0 10.484-8.541 19.035-18.989 19.123h25.563c10.448-.088 18.989-8.639 18.989-19.123 0-10.513-8.629-19.123-19.165-19.123h-25.563c10.536.001 19.165 8.61 19.165 19.123z" clip-rule="evenodd" opacity="1" data-original="#e5384f"></path><path fill="#a7a2d3" fill-rule="evenodd" d="M492.835 162.289H353.543v23.896h101.373c8.805 0 12.532-.176 12.532 9.459v282.592h22.473a3.091 3.091 0 0 0 3.091-3.091V162.289h-.177z" clip-rule="evenodd" opacity="1" data-original="#a7a2d3"></path><path fill="#f9f7f8" fill-rule="evenodd" d="M353.537 72.008v406.231H312.66V360.541H199.34v117.698h-40.877V72.008l94.622-11.713z" clip-rule="evenodd" opacity="1" data-original="#f9f7f8" class=""></path><path fill="#b1e4f9" fill-rule="evenodd" d="M54.12 298.694h69.206v44.014H54.12zM54.12 206.186h69.206V250.2H54.12zM388.645 206.186h69.235V250.2h-69.235zM388.645 298.694h69.235v44.014h-69.235zM388.645 391.232h69.235v43.985h-69.235zM54.12 391.232h69.206v43.985H54.12z" clip-rule="evenodd" opacity="1" data-original="#b1e4f9"></path><path fill="#75cef8" fill-rule="evenodd" d="M54.12 206.186h69.206v16.282H54.12zM54.12 298.694h69.206v16.282H54.12zM54.12 391.232h69.206v16.253H54.12zM388.645 391.232h69.235v16.253h-69.235zM388.645 298.694h69.235v16.282h-69.235zM388.645 206.186h69.235v16.282h-69.235z" clip-rule="evenodd" opacity="1" data-original="#75cef8"></path><path fill="#f9f7f8" d="M457.879 350.435h-69.234a7.725 7.725 0 0 1-7.726-7.726v-44.014a7.726 7.726 0 0 1 7.726-7.726h69.234a7.725 7.725 0 0 1 7.726 7.726v44.014a7.725 7.725 0 0 1-7.726 7.726zm-61.508-15.453h53.782v-28.561h-53.782zM457.879 442.943h-69.234a7.725 7.725 0 0 1-7.726-7.726v-43.984a7.726 7.726 0 0 1 7.726-7.726h69.234a7.725 7.725 0 0 1 7.726 7.726v43.984a7.725 7.725 0 0 1-7.726 7.726zm-61.508-15.452h53.782v-28.532h-53.782z" opacity="1" data-original="#f9f7f8" class=""></path><path fill="#dddaec" fill-rule="evenodd" d="M158.457 95.609h148.156c14.381 0 19.077-1.435 19.077 13.793v368.834h27.852V72.006H158.457z" clip-rule="evenodd" opacity="1" data-original="#dddaec"></path><path fill="#eb5468" fill-rule="evenodd" d="M360.675 33.761H148.42c-10.536 0-19.165 8.61-19.165 19.123s8.629 19.123 19.165 19.123H360.674c10.536 0 19.165-8.61 19.165-19.123.001-10.514-8.628-19.123-19.164-19.123z" clip-rule="evenodd" opacity="1" data-original="#eb5468"></path><path fill="#e5384f" fill-rule="evenodd" d="M332.822 33.761c10.536 0 19.165 8.61 19.165 19.123s-8.629 19.123-19.165 19.123h27.853c10.536 0 19.165-8.61 19.165-19.123s-8.629-19.123-19.165-19.123z" clip-rule="evenodd" opacity="1" data-original="#e5384f"></path><path fill="#b1e4f9" fill-rule="evenodd" d="M199.34 360.541h56.65v117.698h-56.65zM255.99 360.541h56.67v117.698h-56.67z" clip-rule="evenodd" opacity="1" data-original="#b1e4f9"></path><path fill="#75cef8" fill-rule="evenodd" d="M199.341 376.385h56.644v-15.842h-56.644zM255.985 360.543v15.843h33.165c9.128 0 7.22 2.694 7.22 12.299v89.551h16.289V360.543z" clip-rule="evenodd" opacity="1" data-original="#75cef8"></path><path fill="#f9f7f8" d="M123.326 257.926H54.121a7.725 7.725 0 0 1-7.726-7.726v-44.014a7.726 7.726 0 0 1 7.726-7.726h69.205a7.725 7.725 0 0 1 7.726 7.726V250.2a7.725 7.725 0 0 1-7.726 7.726zm-61.479-15.452H115.6v-28.561H61.847zM123.326 350.435H54.121a7.725 7.725 0 0 1-7.726-7.726v-44.014a7.726 7.726 0 0 1 7.726-7.726h69.205a7.725 7.725 0 0 1 7.726 7.726v44.014a7.725 7.725 0 0 1-7.726 7.726zm-61.479-15.453H115.6v-28.561H61.847zM123.326 442.943H54.121a7.725 7.725 0 0 1-7.726-7.726v-43.984a7.726 7.726 0 0 1 7.726-7.726h69.205a7.725 7.725 0 0 1 7.726 7.726v43.984a7.725 7.725 0 0 1-7.726 7.726zm-61.479-15.452H115.6v-28.532H61.847zM457.879 257.926h-69.234a7.725 7.725 0 0 1-7.726-7.726v-44.014a7.726 7.726 0 0 1 7.726-7.726h69.234a7.725 7.725 0 0 1 7.726 7.726V250.2a7.725 7.725 0 0 1-7.726 7.726zm-61.508-15.452h53.782v-28.561h-53.782z" opacity="1" data-original="#f9f7f8" class=""></path><path fill="#375e7d" d="M320.386 360.541v117.698h-15.453V368.267h-41.218v109.972h-15.453V368.267h-41.197v109.972h-15.453V360.541a7.729 7.729 0 0 1 7.726-7.726h113.32a7.729 7.729 0 0 1 7.728 7.726z" opacity="1" data-original="#375e7d"></path><path fill="#eb5468" fill-rule="evenodd" d="M271.981 125.127H239.99c-1.526 0-2.759 1.259-2.759 2.782v29.431h-29.496a2.783 2.783 0 0 0-2.788 2.782v31.92c0 1.523 1.233 2.753 2.788 2.753h29.496v29.46a2.753 2.753 0 0 0 2.759 2.753h31.991c1.526 0 2.788-1.23 2.788-2.753v-29.46h29.496c1.526 0 2.788-1.23 2.788-2.753v-31.92c0-1.523-1.262-2.782-2.788-2.782h-29.496v-29.431c0-1.522-1.262-2.782-2.788-2.782z" clip-rule="evenodd" opacity="1" data-original="#eb5468"></path><path fill="#e5384f" fill-rule="evenodd" d="M271.981 125.127h-23.274c5.342 12.124 8.57 27.879 8.57 45.068 0 23.515-6.017 44.278-15.232 56.811h29.936c1.526 0 2.788-1.23 2.788-2.753v-29.46h29.496c1.526 0 2.788-1.23 2.788-2.753v-31.92c0-1.523-1.262-2.782-2.788-2.782h-29.496v-29.431c0-1.52-1.262-2.78-2.788-2.78z" clip-rule="evenodd" opacity="1" data-original="#e5384f"></path><path fill="#60b7ff" d="M288.651 274.618h-65.302a7.726 7.726 0 1 1 0-15.452h65.302c4.268 0 7.726 3.459 7.726 7.726s-3.458 7.726-7.726 7.726zM288.651 311.106h-65.302a7.726 7.726 0 1 1 0-15.452h65.302c4.268 0 7.726 3.459 7.726 7.726s-3.458 7.726-7.726 7.726z" opacity="1" data-original="#60b7ff"></path><path fill="#eb5468" fill-rule="evenodd" d="M0 143.166c0 10.484 8.541 19.035 18.989 19.123h139.468v-38.245H19.165C8.629 124.044 0 132.653 0 143.166z" clip-rule="evenodd" opacity="1" data-original="#eb5468"></path><path fill="#e5384f" fill-rule="evenodd" d="M138.118 124.044V162.289h20.339V124.044z" clip-rule="evenodd" opacity="1" data-original="#e5384f"></path></g></svg>