<svg xmlns="http://www.w3.org/2000/svg" version="1.1" xmlns:xlink="http://www.w3.org/1999/xlink" width="512" height="512" x="0" y="0" viewBox="0 0 512 512" style="enable-background:new 0 0 512 512" xml:space="preserve" class=""><g><g fill-rule="evenodd" clip-rule="evenodd"><path fill="#837683" d="M18 299.269h19.314c1.102 0 2-.898 2-2v-14.227c0-1.102.898-2 2-2h33.849c1.102 0 2 .898 2 2v14.227c0 1.102.898 2 2 2h97.375c1.102 0 2-.898 2-2v-14.227c0-1.102.898-2 2-2h33.849c1.102 0 2 .898 2 2v14.227c0 1.102.898 2 2 2H237.7c1.102 0 2 .898 2 2v22.359c0 1.102-.898 2-2 2H18c-1.101 0-2-.898-2-2v-22.359c0-1.102.898-2 2-2z" opacity="1" data-original="#837683"></path><path fill="#685e68" d="M18 299.269h19.314c1.102 0 2-.898 2-2v10c0 1.1-.899 2-2 2H16v-8.001c0-1.101.898-1.999 2-1.999zm21.314-8.226h25.849c1.101 0 2 .898 2 2v14.227c0 1.102.899 2 2 2h107.375c1.1 0 2-.9 2-2v-10c0 1.102-.898 2-2 2H79.162c-1.102 0-2-.898-2-2v-14.227c0-1.102-.898-2-2-2H41.314c-1.101 0-2 .898-2 2zm139.223 0v-8.001c0-1.102.898-2 2-2h33.849c1.102 0 2 .898 2 2v14.227c0 1.102.898 2 2 2H237.7c1.102 0 2 .898 2 2v22.359c0 1.102-.898 2-2 2h-8.001V311.27c0-1.102-.899-2-2-2h-19.314c-1.102 0-2-.898-2-2v-14.227c0-1.102-.898-2-2-2z" opacity="1" data-original="#685e68"></path><path fill="#ffe177" d="M412.92 314.84h77.531c3.052 0 5.549 2.497 5.549 5.549v24.22c0 3.051-2.497 5.549-5.549 5.549H412.92c-3.052 0-5.549-2.497-5.549-5.549v-24.22c.001-3.053 2.497-5.549 5.549-5.549z" opacity="1" data-original="#ffe177"></path><path fill="#ffd064" d="M480.451 314.84h10c3.052 0 5.549 2.497 5.549 5.549v24.22c0 3.052-2.497 5.549-5.549 5.549h-10c3.052 0 5.549-2.497 5.549-5.549v-24.22c0-3.053-2.497-5.549-5.549-5.549zM282.916 314.84h117.532c3.052 0 5.549 2.498 5.549 5.549v24.22c0 3.051-2.498 5.549-5.549 5.549H282.916c-3.051 0-5.549-2.497-5.549-5.549v-24.22c0-3.053 2.497-5.549 5.549-5.549z" opacity="1" data-original="#ffd064"></path><path fill="#ffe177" d="M292.916 314.84h-10c-3.052 0-5.549 2.497-5.549 5.549v24.22c0 3.052 2.497 5.549 5.549 5.549h10c-3.052 0-5.549-2.497-5.549-5.549v-24.22c0-3.053 2.497-5.549 5.549-5.549z" opacity="1" data-original="#ffe177"></path><path fill="#837683" d="M467.5 450.108v37.837c0 4.43-3.625 8.055-8.055 8.055h-11.096c-4.43 0-8.055-3.625-8.055-8.055v-37.837c0-4.43 3.625-8.055 8.055-8.055h11.096c4.43 0 8.055 3.625 8.055 8.055zm-134.428 0v37.837c0 4.43-3.625 8.055-8.055 8.055h-11.096c-4.43 0-8.055-3.625-8.055-8.055v-37.837c0-4.43 3.625-8.055 8.055-8.055h11.096c4.431 0 8.055 3.625 8.055 8.055z" opacity="1" data-original="#837683"></path><path fill="#685e68" d="M467.5 450.108v37.837c0 4.43-3.625 8.055-8.055 8.055h-10c4.431 0 8.055-3.625 8.055-8.055v-37.837c0-4.43-3.625-8.055-8.055-8.055h10c4.43 0 8.055 3.625 8.055 8.055zm-134.428 0v37.837c0 4.43-3.625 8.055-8.055 8.055h-10c4.431 0 8.055-3.625 8.055-8.055v-37.837c0-4.43-3.625-8.055-8.055-8.055h10c4.431 0 8.055 3.625 8.055 8.055z" opacity="1" data-original="#685e68"></path><path fill="#ffe177" d="M312.783 279.587h147.8c9.122 0 16.584 7.463 16.584 16.584V468.21c0 3.3-2.699 5.999-5.999 5.999H302.199c-3.3 0-6-2.699-6-5.999V296.171c0-9.121 7.463-16.584 16.584-16.584z" opacity="1" data-original="#ffe177"></path><path fill="#ffd064" d="M466.186 280.568c6.386 2.311 10.981 8.446 10.981 15.604V468.21c0 3.3-2.699 5.999-5.999 5.999H302.199c-3.3 0-6-2.699-6-5.999v-4.001h164.968c3.3 0 6-2.699 6-6V286.171c0-1.964-.347-3.851-.981-5.603z" opacity="1" data-original="#ffd064"></path><path fill="#eceff1" d="M442.477 417.843c7.688 0 13.921 6.232 13.921 13.92s-6.233 13.921-13.921 13.921-13.921-6.233-13.921-13.921c.001-7.688 6.233-13.92 13.921-13.92zm-111.588 0c7.688 0 13.921 6.232 13.921 13.92s-6.233 13.921-13.921 13.921-13.921-6.233-13.921-13.921c.001-7.688 6.233-13.92 13.921-13.92z" opacity="1" data-original="#eceff1"></path><path fill="#d1d1d6" d="M442.477 417.843c.815 0 1.614.071 2.39.205-6.549 1.133-11.531 6.842-11.531 13.715s4.981 12.582 11.531 13.715c-.776.134-1.575.205-2.39.205-7.688 0-13.921-6.233-13.921-13.921.001-7.687 6.233-13.919 13.921-13.919zm-111.588 0c.815 0 1.613.071 2.39.205-6.549 1.133-11.53 6.842-11.53 13.715s4.981 12.582 11.53 13.715c-.776.134-1.575.205-2.39.205-7.688 0-13.921-6.233-13.921-13.921.001-7.687 6.233-13.919 13.921-13.919z" opacity="1" data-original="#d1d1d6"></path><path fill="#d8ecfe" d="M312.978 283.663h147.41c9.097 0 16.54 7.443 16.54 16.541v92.9h-180.49v-92.9c0-9.097 7.443-16.541 16.54-16.541z" opacity="1" data-original="#d8ecfe"></path><g fill="#c4e2ff"><path d="M366.439 283.663h13.76v109.441h-13.76zM449.141 283.663h11.247c9.097 0 16.54 7.443 16.54 16.54v92.901h-11.247v-92.901c0-9.096-7.442-16.54-16.54-16.54z" fill="#c4e2ff" opacity="1" data-original="#c4e2ff"></path></g><path fill="#8ac9fe" d="M85.025 16h123.958c21.533 0 40.009 10.921 50.39 29.787 36.723 66.732 80.897 102.5 205.616 138.874 2.167.631 3.603 2.543 3.603 4.8v61.541c0 2.754-2.246 5-5 5H71.874C41.1 256 16 230.901 16 200.127V117.38c0-5.174.569-9.591 1.883-14.596l11.508-43.862C36.117 33.284 58.52 16 85.025 16z" opacity="1" data-original="#8ac9fe" class=""></path><path fill="#60b7ff" d="M244.719 28.212c5.828 4.662 10.8 10.57 14.654 17.575 8.591 15.611 17.59 29.528 27.933 42.154-15.878-16.156-28.52-34.476-40.381-56.028a61.532 61.532 0 0 0-2.206-3.701zm211.425 153.824c2.907.874 5.846 1.749 8.845 2.624 2.167.631 3.603 2.543 3.603 4.8v61.541c0 2.754-2.246 5-5 5H71.874c-19.83 0-37.302-10.424-47.222-26.07 9.554 7.627 21.647 12.196 34.775 12.196h391.719c2.754 0 5-2.246 5-5v-55.091z" opacity="1" data-original="#60b7ff" class=""></path><path fill="#d8ecfe" d="M263.571 117.535v53.838c0 2.002 1.1 3.715 2.921 4.547a634.526 634.526 0 0 0 22.678 9.828c1.59.653 3.256.485 4.684-.471 1.428-.957 2.216-2.435 2.216-4.153v-42.545c0-1.565-.644-2.911-1.863-3.893a202.165 202.165 0 0 1-21.959-20.538c-1.424-1.546-3.538-2.034-5.496-1.27-1.957.764-3.181 2.556-3.181 4.657zm182.014 109.209v-20.222c0-2.256-1.434-4.168-3.6-4.8a1029.6 1029.6 0 0 1-17.394-5.234c-1.567-.487-3.127-.224-4.448.749s-2.035 2.385-2.035 4.026v21.408a4.951 4.951 0 0 0 3.831 4.861 1302.143 1302.143 0 0 0 17.545 4.088c1.533.346 2.996.01 4.223-.971 1.228-.981 1.878-2.334 1.878-3.905zm-78.989-43.488v25.761c0 2.256 1.433 4.167 3.599 4.799 6.275 1.832 12.69 3.637 19.245 5.414 1.553.421 3.068.123 4.346-.854 1.278-.978 1.962-2.362 1.962-3.971V190.49c0-2.15-1.288-3.98-3.312-4.706a580.683 580.683 0 0 1-18.989-7.172c-1.588-.633-3.242-.453-4.657.506s-2.194 2.429-2.194 4.138zm-51.513-24.743v33.783c0 2.146 1.283 3.974 3.302 4.702a816.008 816.008 0 0 0 20.954 7.243c1.573.52 3.155.276 4.498-.695 1.343-.97 2.072-2.396 2.072-4.052v-29.786c0-1.952-1.041-3.624-2.792-4.486-7.284-3.585-14.097-7.249-20.495-11.017-1.589-.936-3.418-.948-5.018-.033-1.602.915-2.521 2.497-2.521 4.341z" opacity="1" data-original="#d8ecfe"></path><path fill="#c4e2ff" d="M263.571 117.535v53.838c0 2.002 1.1 3.715 2.921 4.547 1.609.736 3.23 1.468 4.865 2.198v-52.585c0-2.101 1.224-3.893 3.182-4.658 1.777-.694 3.683-.355 5.085.87a201.972 201.972 0 0 1-7.375-7.597c-1.424-1.546-3.538-2.034-5.496-1.27s-3.182 2.556-3.182 4.657zm32.421 20.123c-.205-1.173-.812-2.189-1.784-2.972a203.737 203.737 0 0 1-14.174-12.541h.001a201.077 201.077 0 0 0 15.957 15.513zm149.593 70.832v-1.968c0-2.256-1.434-4.168-3.6-4.8a1029.6 1029.6 0 0 1-17.394-5.234c-1.567-.487-3.127-.224-4.448.749s-2.035 2.385-2.035 4.026v21.408a4.951 4.951 0 0 0 3.831 4.861c1.313.316 2.631.63 3.955.944V209.26c0-1.641.714-3.053 2.035-4.026s2.881-1.235 4.448-.749a990.51 990.51 0 0 0 13.208 4.005zm-78.989-25.234v25.761c0 2.256 1.433 4.167 3.599 4.799 1.389.406 2.785.81 4.187 1.213v-23.776c0-1.709.779-3.179 2.194-4.138s3.069-1.139 4.657-.506a566.255 566.255 0 0 0 14.515 5.549v-1.668c0-2.15-1.288-3.98-3.312-4.706a580.683 580.683 0 0 1-18.989-7.172c-1.588-.633-3.242-.453-4.657.506s-2.194 2.429-2.194 4.138zm-51.513-24.743v33.783c0 2.146 1.283 3.974 3.302 4.702 1.486.537 2.98 1.071 4.484 1.604V166.51c0-1.844.918-3.426 2.519-4.341 1.6-.915 3.43-.903 5.018.033a302.02 302.02 0 0 0 15.502 8.51v-1.004c0-1.952-1.041-3.624-2.792-4.486-7.284-3.585-14.097-7.249-20.495-11.017-1.589-.936-3.418-.948-5.018-.033-1.601.915-2.52 2.497-2.52 4.341z" opacity="1" data-original="#c4e2ff"></path><path fill="#d8ecfe" d="M88.409 43.898c-14.905 0-27.218 9.51-31 23.943l-8.177 31.203c-.62 2.367-.154 4.667 1.339 6.605s3.597 2.973 6.042 2.973H208.36c2.317 0 4.312-.923 5.813-2.69s2.091-3.886 1.719-6.176l-5.189-31.914c-2.394-14.728-16.096-23.943-31-23.943H88.409z" opacity="1" data-original="#d8ecfe"></path><path fill="#c4e2ff" d="M88.409 43.898c-14.905 0-27.218 9.51-31 23.943l-8.177 31.203c-.62 2.367-.154 4.667 1.339 6.605s3.597 2.973 6.042 2.973h10c-2.445 0-4.548-1.035-6.042-2.973-1.493-1.938-1.959-4.238-1.339-6.605l8.177-31.203c3.782-14.433 16.095-23.943 31-23.943z" opacity="1" data-original="#c4e2ff"></path><path fill="#eceff1" d="M193.251 147.971c12.22 0 22.127 9.907 22.127 22.127s-9.907 22.127-22.127 22.127-22.127-9.906-22.127-22.127c0-12.22 9.906-22.127 22.127-22.127zm-128.351 0c12.22 0 22.127 9.907 22.127 22.127S77.12 192.225 64.9 192.225s-22.127-9.906-22.127-22.127c0-12.22 9.907-22.127 22.127-22.127z" opacity="1" data-original="#eceff1"></path><path fill="#d1d1d6" d="M193.251 147.971c1.467 0 2.901.144 4.288.417-10.168 1.997-17.839 10.957-17.839 21.71s7.671 19.713 17.839 21.71a22.197 22.197 0 0 1-4.288.417c-12.22 0-22.127-9.906-22.127-22.127 0-12.22 9.906-22.127 22.127-22.127zm-128.351 0c1.467 0 2.901.144 4.288.417-10.168 1.997-17.839 10.957-17.839 21.71s7.671 19.713 17.839 21.71a22.19 22.19 0 0 1-4.288.417c-12.22 0-22.127-9.906-22.127-22.127 0-12.22 9.907-22.127 22.127-22.127z" opacity="1" data-original="#d1d1d6"></path><path d="M231.695 317.632H23.972v-10.363h15.355c4.38 0 8.007-3.58 8.007-7.998V289.04h21.809v10.231c0 4.418 3.58 7.998 8.008 7.998h101.365a7.998 7.998 0 0 0 8.007-7.998V289.04h21.856v10.231a7.999 7.999 0 0 0 8.007 7.998h15.309zm8.008-26.364h-15.309v-10.226a8.003 8.003 0 0 0-8.008-8.003h-37.871c-4.381 0-7.961 3.585-7.961 8.003v10.226H85.158v-10.226a8.003 8.003 0 0 0-8.007-8.003H39.327a8.003 8.003 0 0 0-8.008 8.003v10.226H16.011a8 8 0 0 0-8.008 8.003v26.358c0 4.418 3.58 7.998 8.008 7.998h223.692a7.998 7.998 0 0 0 8.007-7.998v-26.358a8 8 0 0 0-8.007-8.003zm-46.444-107.046c-7.819 0-14.131-6.335-14.131-14.126 0-7.786 6.312-14.126 14.131-14.126 7.772 0 14.131 6.34 14.131 14.126 0 7.791-6.359 14.126-14.131 14.126zm0-44.253c-16.627 0-30.146 13.519-30.146 30.127 0 16.613 13.518 30.127 30.146 30.127 16.627 0 30.099-13.514 30.099-30.127 0-16.608-13.472-30.127-30.099-30.127zM64.904 155.97c7.772 0 14.131 6.34 14.131 14.126 0 7.791-6.359 14.126-14.131 14.126-7.819 0-14.131-6.335-14.131-14.126 0-7.786 6.312-14.126 14.131-14.126zm0 44.253c16.58 0 30.099-13.514 30.099-30.127 0-16.609-13.519-30.127-30.099-30.127-16.627 0-30.146 13.519-30.146 30.127 0 16.613 13.519 30.127 30.146 30.127zm.235-130.353c2.873-10.919 12.011-17.975 23.269-17.975h91.285c10.08 0 21.291 5.921 23.128 17.23l5.087 31.493H57.085zm-8.525 46.75h151.718c4.663 0 8.902-1.955 11.917-5.511 3.015-3.547 4.286-8.04 3.533-12.638L218.6 66.554c-2.873-17.762-19.265-30.659-38.907-30.659H88.408c-18.464 0-34.056 12.021-38.765 29.915l-8.149 31.201c-1.272 4.795-.283 9.595 2.732 13.518 3.014 3.929 7.442 6.091 12.388 6.091zm214.93 8.403a206.833 206.833 0 0 0 16.533 14.983v36.622a644.923 644.923 0 0 1-16.533-7.188zm-11.352 56.811a657.751 657.751 0 0 0 32.925 14.135c.942.382 1.931.57 2.967.57a8.04 8.04 0 0 0 4.475-1.38c2.214-1.489 3.486-3.966 3.486-6.623v-52.369c0-2.45-1.083-4.767-3.015-6.284-11.635-9.166-21.856-19.246-31.229-30.819-2.167-2.633-5.699-3.641-8.902-2.506a7.98 7.98 0 0 0-5.323 7.541v70.475a7.99 7.99 0 0 0 4.616 7.26zm165.897 23.495a959.532 959.532 0 0 0 11.493 3.438v14.216c-3.863-.881-7.678-1.78-11.493-2.68zm-9.892 29.048a1369.812 1369.812 0 0 0 27.649 6.415 8.138 8.138 0 0 0 1.743.189c1.79 0 3.58-.608 4.993-1.762 1.884-1.516 3.015-3.811 3.015-6.236v-30.217a7.99 7.99 0 0 0-5.794-7.687 1058.843 1058.843 0 0 1-27.272-8.253 8.011 8.011 0 0 0-7.16 1.163 8.066 8.066 0 0 0-3.25 6.458v32.157a7.98 7.98 0 0 0 6.076 7.773zm-93.122-70.668a333.743 333.743 0 0 0 14.837 7.862v23.759a845.182 845.182 0 0 1-14.837-5.143zm-10.74 39.599a815.352 815.352 0 0 0 31.135 10.688 7.84 7.84 0 0 0 2.449.386 8.088 8.088 0 0 0 4.71-1.536 7.995 7.995 0 0 0 3.297-6.462v-39.802c0-3.076-1.79-5.878-4.569-7.212-11.022-5.323-20.867-10.73-30.004-16.528-2.449-1.564-5.558-1.663-8.149-.259-2.544 1.408-4.098 4.093-4.098 7.014v46.199a7.977 7.977 0 0 0 5.229 7.512zm62.27-15.647a544.2 544.2 0 0 0 13.142 4.937v17.876a952.812 952.812 0 0 1-13.142-3.707zm-10.268 32.769a1071.028 1071.028 0 0 0 29.345 8.224 8.223 8.223 0 0 0 2.072.264c1.743 0 3.439-.57 4.852-1.658a8 8 0 0 0 3.156-6.34v-33.961c0-3.391-2.167-6.415-5.37-7.541-10.174-3.599-19.878-7.292-28.733-10.985a7.957 7.957 0 0 0-7.489.735 7.929 7.929 0 0 0-3.58 6.656v36.933c0 3.542 2.355 6.665 5.747 7.673zM23.972 117.378v82.746c0 26.396 21.526 47.875 47.904 47.875h388.693v-56.293c-61.705-18.125-103.485-36.067-135.044-57.894-30.381-21.041-52.284-46.213-73.151-84.168-8.997-16.298-24.776-25.643-43.382-25.643H85.017c-22.845 0-42.11 14.847-47.903 36.952L25.62 104.811c-1.131 4.329-1.648 8.088-1.648 12.567zM71.875 264h396.7a8.002 8.002 0 0 0 8.007-8.003v-70.292a7.989 7.989 0 0 0-5.793-7.687c-130.899-37.729-170.23-73.942-204.427-136.09C254.492 20.364 233.579 8 208.991 8H85.017c-30.24 0-55.676 19.647-63.353 48.893l-11.54 43.857c-1.46 5.653-2.12 10.782-2.12 16.627v82.746C8.003 235.343 36.642 264 71.875 264zm337.681 167.757a8 8 0 0 1-8.008 8.003h-29.769a8 8 0 0 1-8.007-8.003 7.999 7.999 0 0 1 8.007-7.998h29.769c4.428 0 8.008 3.58 8.008 7.998zm32.924 5.921c-3.25 0-5.935-2.652-5.935-5.921 0-3.259 2.685-5.916 5.935-5.916s5.935 2.657 5.935 5.916c0 3.269-2.684 5.921-5.935 5.921zm0-27.838c-12.105 0-21.903 9.84-21.903 21.917 0 12.091 9.797 21.922 21.903 21.922s21.903-9.831 21.903-21.922c0-12.077-9.797-21.917-21.903-21.917zm-111.586 27.838c-3.25 0-5.935-2.652-5.935-5.921 0-3.259 2.685-5.916 5.935-5.916s5.935 2.657 5.935 5.916c0 3.269-2.685 5.921-5.935 5.921zm0-27.838c-12.105 0-21.95 9.84-21.95 21.917 0 12.091 9.845 21.922 21.95 21.922 12.058 0 21.903-9.831 21.903-21.922-.001-12.077-9.845-21.917-21.903-21.917zm157.088-67.682h-2.826v-19.322h2.826zm-28.545 145.84-11.163-.047v-5.742h11.21zm-134.431 0-11.163-.047v-5.742h11.211zm-39.661-145.84v-19.322h2.826v19.322zm27.461-54.573h65.897v93.735h-74.517v-85.153c0-4.729 3.863-8.582 8.62-8.582zm-8.62 178.624h165.002V397.32H304.186zm165.002-170.042v85.153h-74.517v-93.735h65.897c4.757 0 8.62 3.853 8.62 8.582zm21.243 10.674h-5.276v-10.674c0-13.552-11.022-24.578-24.588-24.578H312.806c-13.566 0-24.635 11.027-24.635 24.578v10.674h-5.276c-7.442 0-13.518 6.081-13.518 13.551v24.216c0 7.47 6.076 13.551 13.518 13.551h5.276v116.048a8 8 0 0 0 8.008 8.003h1.696v5.742c0 8.846 7.207 16.048 16.062 16.048h11.069c8.855 0 16.062-7.202 16.062-16.048v-5.742h91.238v5.742c0 8.846 7.207 16.048 16.062 16.048h11.069c8.855 0 16.062-7.202 16.062-16.048v-5.742h1.649a8 8 0 0 0 8.008-8.003V358.159h5.276c7.489 0 13.565-6.081 13.565-13.551v-24.216c0-7.471-6.076-13.551-13.566-13.551z" fill="#000000" opacity="1" data-original="#000000" class=""></path></g></g></svg>