<svg xmlns="http://www.w3.org/2000/svg" version="1.1" xmlns:xlink="http://www.w3.org/1999/xlink" width="512" height="512" x="0" y="0" viewBox="0 0 60 60" style="enable-background:new 0 0 512 512" xml:space="preserve" class=""><g><g fill="none" fill-rule="nonzero"><path fill="#3f51b5" d="m14.78 28.48-.96 1.91-8.03 15.99-1.28 2.55A1.977 1.977 0 0 1 2.75 50H2a1 1 0 0 1-1-1V22a1.007 1.007 0 0 1 1.38-.93l11.38 4.62c.084.032.164.072.24.12a2.02 2.02 0 0 1 .78 2.67z" opacity="1" data-original="#3f51b5"></path><path fill="#283593" d="M14 25.81a1.344 1.344 0 0 0-.24-.12L2.38 21.07a1.01 1.01 0 0 0-1.346.671l9.726 3.949c.084.032.164.072.24.12a2.02 2.02 0 0 1 .78 2.67l-.96 1.91-8.03 15.99-1.28 2.55a1.947 1.947 0 0 1-.395.511A1 1 0 0 0 2 50h.75c.74.001 1.42-.412 1.76-1.07l1.28-2.55 8.03-15.99.96-1.91a2.02 2.02 0 0 0-.78-2.67z" opacity="1" data-original="#283593"></path><path fill="#ffe0b2" d="M45.7 48.13a2.83 2.83 0 0 1-4.69 2.13l-1.24-1.08a2.686 2.686 0 1 1-3.67 3.92l-.11-.11a2.121 2.121 0 0 1-3 3l-.71-.7a2.3 2.3 0 0 1 .51 1.44 2.27 2.27 0 0 1-3.64 1.81L26 56l-.15-.07.97-2.1c.118-.264.179-.55.18-.84a2.006 2.006 0 0 0-3.83-.84l.21-.47c.153-.325.232-.68.23-1.04a2.5 2.5 0 0 0-4.76-1.07l.41-.89a2.5 2.5 0 0 0-4.54-2.09l-.67 1.46a2.18 2.18 0 0 0-3.99-1.76l-.8 1.74-3.47-1.65 8.03-15.99A16.343 16.343 0 0 0 19 32c1.11 0 3.27-.77 5.59-.86a.3.3 0 0 0-.04.08l-2.32 5.14a2.578 2.578 0 0 0 1.19 3.37h.01c1.046.52 2.31.27 3.08-.61l4.61-5.13 13.62 12.02a1.7 1.7 0 0 1 .19.19c.496.52.772 1.211.77 1.93z" opacity="1" data-original="#ffe0b2" class=""></path><path fill="#dfc49c" d="M19.23 36.36a2.578 2.578 0 0 0 1.19 3.37h.01a2.563 2.563 0 0 0 2.639-.221 2.575 2.575 0 0 1-.839-3.149l2.32-5.14a.3.3 0 0 1 .04-.08c-1.08.062-2.155.214-3.21.456zM9.95 45.22a2.188 2.188 0 0 0-2.89 1.07l-.262.569L9.26 48.03l.8-1.74c.117-.247.279-.47.478-.658a2.172 2.172 0 0 0-.588-.412zM44.93 46.2a1.7 1.7 0 0 0-.19-.19L31.12 33.99l-1.327 1.477L41.74 46.01a1.7 1.7 0 0 1 .19.19c.496.52.772 1.211.77 1.93-.001.75-.3 1.47-.83 2a2.8 2.8 0 0 1-.5.389 2.823 2.823 0 0 0 4.33-2.389 2.782 2.782 0 0 0-.77-1.93z" opacity="1" data-original="#dfc49c"></path><path fill="#3f51b5" d="M59 21.93v25.14a.971.971 0 0 1-1 .93h-.75a2.012 2.012 0 0 1-1.76-1l-2.28-4.23-6.44-11.93-1.55-2.88a1.807 1.807 0 0 1 .78-2.48c.078-.04.158-.077.24-.11l11.38-4.3a1 1 0 0 1 1.38.86z" opacity="1" data-original="#3f51b5"></path><path fill="#283593" d="m57.62 21.07-1.652.624a.873.873 0 0 1 .032.236v25.14a.868.868 0 0 1-.112.407c.375.335.86.521 1.362.523H58a.971.971 0 0 0 1-.93V21.93a1 1 0 0 0-1.38-.86z" opacity="1" data-original="#283593"></path><path fill="#ffe0b2" d="m53.21 42.77-8.28 3.43a1.7 1.7 0 0 0-.19-.19L31.12 33.99l-4.61 5.13a2.572 2.572 0 0 1-3.08.61h-.01a2.578 2.578 0 0 1-1.19-3.37l2.32-5.14a.3.3 0 0 1 .04-.08 11.412 11.412 0 0 1 2.52-3.46v-.01a4.787 4.787 0 0 1 6.07-.35l.82.6 5.27 3.84a3.976 3.976 0 0 0 3.73.49l3.77-1.41z" opacity="1" data-original="#ffe0b2" class=""></path><path fill="#dfc49c" d="m30.18 27.32.82.6 5.27 3.84a3.976 3.976 0 0 0 3.73.49l.095-.036a3.939 3.939 0 0 1-.825-.454L34 27.92l-.82-.6a4.771 4.771 0 0 0-4.314-.664c.47.152.913.376 1.314.664zM46.77 30.84l-2.5.933 5.936 11-6.221 2.577.751.663a1.7 1.7 0 0 1 .19.19l8.28-3.43z" opacity="1" data-original="#dfc49c"></path><g fill="#ffe0b2"><path d="M14.22 47.21a2.25 2.25 0 0 1-.17.84l-.03.06-.98 2.11a.487.487 0 0 0-.04.11l-.09.19a2.181 2.181 0 0 1-3.96-1.83l.31-.66.8-1.74a2.18 2.18 0 0 1 4.16.92z" fill="#ffe0b2" opacity="1" data-original="#ffe0b2" class=""></path><path d="M19.49 47.64c.002.36-.077.715-.23 1.04l-.41.89c0 .01-.01.01-.01.02l-1.25 2.73A2.501 2.501 0 0 1 13 50.33l1.02-2.22.03-.06.67-1.46a2.5 2.5 0 0 1 4.77 1.05z" fill="#ffe0b2" opacity="1" data-original="#ffe0b2" class=""></path><path d="M23.61 50.64c.002.36-.077.715-.23 1.04l-.21.47-.94 2.05h-.01l-.1.23a2.5 2.5 0 0 1-4.53-2.11l1.25-2.73c0-.01.01-.01.01-.02a2.5 2.5 0 0 1 4.76 1.07z" fill="#ffe0b2" opacity="1" data-original="#ffe0b2" class=""></path><path d="M27 52.99c-.001.29-.062.576-.18.84l-.97 2.1-.28.61a2.009 2.009 0 1 1-3.65-1.68l.2-.43.1-.23h.01l.94-2.05a2.006 2.006 0 0 1 3.83.84z" fill="#ffe0b2" opacity="1" data-original="#ffe0b2" class=""></path><path d="M27 52.99c-.001.29-.062.576-.18.84l-.97 2.1-.28.61a2.009 2.009 0 1 1-3.65-1.68l.2-.43.1-.23h.01l.94-2.05a2.006 2.006 0 0 1 3.83.84z" fill="#ffe0b2" opacity="1" data-original="#ffe0b2" class=""></path></g><path fill="#ff9801" d="M45.22 27.96a1.807 1.807 0 0 1 .78-2.48v-9.11L30 5.42 14 16.37v9.44a2.02 2.02 0 0 1 .78 2.67l-.96 1.91A16.343 16.343 0 0 0 19 32c1.11 0 3.27-.77 5.59-.86.373-.81.847-1.57 1.41-2.26V22a1 1 0 0 1 1-1h6a1 1 0 0 1 1 1v5.92l5.27 3.84a3.976 3.976 0 0 0 3.73.49l3.77-1.41zM30 17a3 3 0 1 1 0-6 3 3 0 0 1 0 6z" opacity="1" data-original="#ff9801"></path><path fill="#f57c00" d="M45.22 27.96a1.807 1.807 0 0 1 .78-2.48v-9.11L30 5.42l-1.5 1.027L43 16.37v9.11a1.807 1.807 0 0 0-.78 2.48l1.55 2.88-3.67 1.374a3.989 3.989 0 0 0 2.9.036l3.77-1.41z" opacity="1" data-original="#f57c00"></path><path fill="#f44335" d="M34 22v5.92l-.82-.6a4.787 4.787 0 0 0-6.07.35v.01c-.4.37-.772.772-1.11 1.2V22a1 1 0 0 1 1-1h6a1 1 0 0 1 1 1z" opacity="1" data-original="#f44335"></path><path fill="#c81e1e" d="M26 26.613v2.267c.338-.428.71-.83 1.11-1.2v-.01a4.762 4.762 0 0 1 1.756-1.014A4.768 4.768 0 0 0 26 26.613zM33 21h-3a1 1 0 0 1 1 1v4.451a4.757 4.757 0 0 1 2.18.869l.82.6V22a1 1 0 0 0-1-1z" opacity="1" data-original="#c81e1e"></path><path fill="#f44335" d="M50.65 17.13a2 2 0 0 1-2.78.52L46 16.37 30 5.42 14 16.37l-1.87 1.28a2 2 0 0 1-2.26-3.3l19-13a2 2 0 0 1 2.26 0l19 13a2 2 0 0 1 .52 2.78z" opacity="1" data-original="#f44335"></path><path fill="#c81e1e" d="m50.13 14.35-19-13a2 2 0 0 0-2.26 0l-.37.25 18.63 12.75a2 2 0 0 1 .52 2.78c-.06.082-.128.158-.2.23l.423.29a2 2 0 1 0 2.257-3.3z" opacity="1" data-original="#c81e1e"></path><circle cx="30" cy="14" r="3" fill="#00bcd4" opacity="1" data-original="#00bcd4"></circle><path fill="#00838f" d="M30 11a2.974 2.974 0 0 0-1.5.415 2.977 2.977 0 0 1 0 5.17A3 3 0 1 0 30 11z" opacity="1" data-original="#00838f"></path><path fill="#000000" d="M59.165 20.362a2.061 2.061 0 0 0-1.894-.228L47 24.015v-5.75l.306.209a3 3 0 0 0 3.39-4.949L31.7.53A2.97 2.97 0 0 0 30 0a2.968 2.968 0 0 0-1.7.527l-19 13a3 3 0 0 0-.778 4.173 3 3 0 0 0 4.17.779l.308-.21v6.042L2.752 20.147A2 2 0 0 0 0 22v27a2 2 0 0 0 2 2h.748c1.12 0 2.144-.628 2.652-1.626l.842-1.674 1.72.817A3.171 3.171 0 0 0 9.6 52.49c.415.192.867.292 1.324.292a3.2 3.2 0 0 0 1.143-.22 3.485 3.485 0 0 0 4.456 1.991c.014 0 .025-.013.038-.018a3.446 3.446 0 0 0 4.345 2.155c.006.016.007.032.013.048a3.006 3.006 0 0 0 5.265.701l2.368 1.9a3.263 3.263 0 0 0 5.138-1.849 3.039 3.039 0 0 0 3-.8c.495-.498.806-1.15.879-1.849.141.022.284.036.427.041a3.665 3.665 0 0 0 3.638-3.139 3.8 3.8 0 0 0 4.766-5.069l6.358-2.634 1.857 3.443A3 3 0 0 0 57.252 49H58a1.968 1.968 0 0 0 2-1.931V21.932a1.915 1.915 0 0 0-.835-1.57zm-47.6-3.536c-.457.3-1.07.186-1.388-.259a.994.994 0 0 1-.156-.752.979.979 0 0 1 .415-.639l19-13a.988.988 0 0 1 1.129.002l19 13a.979.979 0 0 1 .413.638c.05.26-.005.53-.155.75a1.015 1.015 0 0 1-1.39.26L30.566 4.6A1.01 1.01 0 0 0 30 4.422a1 1 0 0 0-.564.175zM30 6.632 45 16.9v8.082a2.837 2.837 0 0 0-.829 1.166 2.768 2.768 0 0 0 .174 2.292l1.006 1.86-2.7 1.011a2.971 2.971 0 0 1-2.789-.362L35 27.408V22a2 2 0 0 0-2-2h-6a2 2 0 0 0-2 2v6.535c-.391.52-.739 1.073-1.039 1.651-1.079.105-2.15.278-3.207.52A11 11 0 0 1 19 31a12.137 12.137 0 0 1-3.817-1.107l.481-.959A2.971 2.971 0 0 0 15 25.327V16.9zm3 19.416a5.789 5.789 0 0 0-6 .452V22h6zM2.748 49H2V22l11.384 4.621a.975.975 0 0 1 .552.573c.102.273.082.576-.054.833L3.621 48.467a.979.979 0 0 1-.873.533zm7.69 1.674a1.181 1.181 0 0 1-.576-1.562l1.108-2.4a1.177 1.177 0 1 1 2.138.986L12 50.1a1.182 1.182 0 0 1-1.562.574zm5.4 2a1.5 1.5 0 0 1-1.881-2.035l1.675-3.633a1.5 1.5 0 0 1 2.724 1.256L16.678 51.9c-.166.361-.47.641-.843.777zm3.394 2.048a1.5 1.5 0 0 1-.735-1.99l1.253-2.722a1.5 1.5 0 1 1 2.724 1.257L21.306 53.8l-.01.022-.078.17a1.5 1.5 0 0 1-1.989.734zm4.091 1.887a1.008 1.008 0 0 1-.492-1.336l.309-.67.013-.029.928-2.014a1.007 1.007 0 1 1 1.829.844l-1.25 2.712a1.01 1.01 0 0 1-1.34.496zm20.843-7.189c-.68.678-1.77.715-2.495.084l-4.86-4.253-1.149-1.006a.981.981 0 0 0-.345-.2.855.855 0 0 0-.152-.02.985.985 0 0 0-.6.069.982.982 0 0 0-.556.926c0 .014-.006.027 0 .04 0 .031.019.059.024.09.031.23.143.443.315.6l4.77 4.179a1.685 1.685 0 0 1 .082 2.462 1.691 1.691 0 0 1-2.386 0l-.11-.11-3.987-3.987a1 1 0 0 0-1.414 1.414l3.978 3.992a1.119 1.119 0 0 1 0 1.584 1.147 1.147 0 0 1-1.584 0l-.866-.866-1.119-1.119a1 1 0 1 0-1.414 1.414l1.121 1.121a1.274 1.274 0 0 1-1.636 1.94L27.1 55.6l.626-1.356a3.013 3.013 0 0 0-1.473-3.99 2.982 2.982 0 0 0-1.7-.238 3.6 3.6 0 0 0-.154-.589 3.481 3.481 0 0 0-3.944-2.217 3.476 3.476 0 0 0-5.96-2.009 3.156 3.156 0 0 0-5.339.671l-.378.82-1.638-.778 7.143-14.229c1.484.71 3.08 1.155 4.717 1.315.733-.043 1.46-.157 2.171-.338.56-.119 1.163-.245 1.789-.345l-1.64 3.63a3.567 3.567 0 0 0 1.654 4.677c.03.015.061.028.092.04a3.569 3.569 0 0 0 4.189-.876L31.2 35.4l12.881 11.362c.394.345.62.844.619 1.368-.002.485-.195.95-.537 1.293zm.979-4.393L30.662 32.25a1 1 0 1 0-1.324 1.5l.365.322-3.946 4.391a1.568 1.568 0 0 1-1.88.373c-.023-.01-.045-.021-.068-.03a1.572 1.572 0 0 1-.667-2.033l2.321-5.137a9.967 9.967 0 0 1 2.308-3.211l.016-.014a3.8 3.8 0 0 1 4.807-.28l6.09 4.441a4.964 4.964 0 0 0 4.667.617l2.959-1.109 5.49 10.19zM58 47h-.748a1.009 1.009 0 0 1-.882-.475L46.1 27.477a.765.765 0 0 1-.052-.643.9.9 0 0 1 .546-.527L58 21.932z" opacity="1" data-original="#000000"></path><path fill="#000000" d="M30 18a4 4 0 1 0 0-8 4 4 0 0 0 0 8zm0-6a2 2 0 1 1 0 4 2 2 0 0 1 0-4z" opacity="1" data-original="#000000"></path></g></g></svg>