<svg xmlns="http://www.w3.org/2000/svg" version="1.1" xmlns:xlink="http://www.w3.org/1999/xlink" width="512" height="512" x="0" y="0" viewBox="0 0 512 512" style="enable-background:new 0 0 512 512" xml:space="preserve" class=""><g><circle cx="256" cy="256" r="256" fill="#7584f2" opacity="1" data-original="#7584f2" class=""></circle><path fill="#4253ce" d="M512 256c0-36.082-7.465-70.421-20.935-101.556l-50.968-50.968L71.903 401.525l94.272 94.272C194.125 506.272 224.393 512 256 512c141.385 0 256-114.615 256-256z" opacity="1" data-original="#4253ce"></path><path fill="#ffffff" d="M71.903 148.85h368.195v252.675H71.903z" opacity="1" data-original="#ffffff" class=""></path><path fill="#ffffff" d="M71.903 148.85h183.942v252.675H71.903z" opacity="1" data-original="#ffffff" class=""></path><path fill="#e9edf5" d="M255.844 148.85h184.253v252.675H255.844z" opacity="1" data-original="#e9edf5"></path><path fill="#afb4c8" d="M256 193.876h144.188v30H256zM256 247h144.188v30H256zM256 300.125h144.188v30H256z" opacity="1" data-original="#afb4c8"></path><path fill="#dce1eb" d="M71.903 103.476h368.195v52.373H71.903z" opacity="1" data-original="#dce1eb"></path><path fill="#bec3d2" d="M255.844 103.476h184.253v52.373H255.844z" opacity="1" data-original="#bec3d2"></path><path fill="#ff432e" d="m280.746 321.071-19.165 25.349 63.573 71.233c13.929 15.607 38.114 16.294 52.906 1.502.129-.129.248-.265.375-.395l-50.341-61.65z" opacity="1" data-original="#ff432e"></path><path fill="#ff6c52" d="m376.558 366.249-71.233-63.572-23.675 17.199-.904 1.196 97.689 97.689c14.395-14.824 13.594-38.704-1.877-52.512z" opacity="1" data-original="#ff6c52"></path><path fill="#606aea" d="m253.275 293.6-20.521 20.52 28.827 32.3 22.257-22.256-9.405-16.426z" opacity="1" data-original="#606aea"></path><path fill="#7584f2" d="m305.325 302.677-32.3-28.827-19.75 19.75 30.563 30.564z" opacity="1" data-original="#7584f2" class=""></path><path fill="#e9edf5" d="M108.145 148.47c-.129.128-.261.251-.39.38-41.007 41.007-41.007 107.492 0 148.499s107.492 41.007 148.499 0c.129-.129.252-.261.38-.39l-74.784-82.545z" opacity="1" data-original="#e9edf5"></path><path fill="#ffffff" d="M256.254 148.85c-40.878-40.878-107.072-41.001-148.109-.38l148.489 148.489c40.621-41.037 40.498-107.23-.38-148.109z" opacity="1" data-original="#ffffff" class=""></path><path fill="#555a66" d="M246.023 286.348c-.128.13-.246.266-.375.395-35.093 35.093-92.192 35.092-127.286 0-35.092-35.093-35.092-92.193 0-127.286.129-.129.265-.247.395-.375l-7.545-14.06-13.673-7.157c-.129.128-.261.251-.39.38-46.789 46.79-46.789 122.922 0 169.712 23.395 23.395 54.125 35.092 84.856 35.092 30.73 0 61.461-11.697 84.856-35.092.129-.129.252-.261.38-.39l-7.427-13.966z" opacity="1" data-original="#555a66"></path><path fill="#636978" d="M182.004 133.137c23.048 0 46.097 8.773 63.643 26.319 34.964 34.963 35.082 91.767.375 126.891l21.218 21.218c46.405-46.821 46.281-122.661-.38-169.322s-122.501-46.785-169.322-.38l21.218 21.218c17.497-17.289 40.37-25.944 63.248-25.944z" opacity="1" data-original="#636978" class=""></path><path fill="#606aea" d="m103.545 246.025 5.962-10.848c1.987 1.656 4.637 3.229 7.95 3.229 4.472 0 7.37-2.898 7.37-7.536v-36.105h14.244v36.271c0 13.664-8.281 19.957-20.372 19.957-5.548.001-11.014-1.324-15.154-4.968zM189.294 229.619c-2.268 5.243-7.088 8.788-13.544 8.788-9.191 0-15.071-7.039-15.071-15.982 0-6.157 2.74-11.345 7.396-14.025l-1.257-7.436-8.347-2.168c-7.542 4.968-12.283 13.351-12.283 23.629 0 16.811 12.67 28.569 29.563 28.569 10.053 0 18.58-4.165 23.838-11.08l-3.671-8.233z" opacity="1" data-original="#606aea"></path><g fill="#7584f2"><path d="M175.75 206.442c9.109 0 14.989 6.956 14.989 15.982 0 2.605-.512 5.04-1.445 7.195l10.294 10.294c3.577-4.705 5.642-10.683 5.642-17.489 0-16.81-12.587-28.569-29.48-28.569-6.565 0-12.486 1.782-17.28 4.94l9.604 9.604c2.17-1.249 4.754-1.957 7.676-1.957zM212.429 250v-55.234h31.302c10.931 0 16.148 7.122 16.148 14.078 0 6.873-4.223 11.51-9.44 12.67 5.879.911 10.517 6.542 10.517 13.498 0 8.032-5.383 14.988-16.231 14.988zm32.958-38.672c0-2.65-1.987-4.555-4.886-4.555h-13.829v9.192h13.829c2.899 0 4.886-1.904 4.886-4.637zm1.077 21.696c0-2.732-1.988-4.968-5.466-4.968h-14.326v9.937h14.326c3.396 0 5.466-1.988 5.466-4.969z" fill="#7584f2" opacity="1" data-original="#7584f2" class=""></path></g><ellipse cx="411.917" cy="129.662" fill="#ff6c52" rx="11.729" ry="11.728" transform="rotate(-22.48 411.672 129.376)" opacity="1" data-original="#ff6c52"></ellipse><ellipse cx="376.995" cy="129.662" fill="#ff6c52" rx="11.729" ry="11.728" transform="rotate(-22.48 376.778 129.395)" opacity="1" data-original="#ff6c52"></ellipse></g></svg>