<svg xmlns="http://www.w3.org/2000/svg" version="1.1" xmlns:xlink="http://www.w3.org/1999/xlink" width="512" height="512" x="0" y="0" viewBox="0 0 128 128" style="enable-background:new 0 0 512 512" xml:space="preserve" class=""><g><linearGradient id="a"><stop offset="0" stop-color="#ffc8ab"></stop><stop offset=".41" stop-color="#fdc4a9"></stop><stop offset=".779" stop-color="#f5b9a2"></stop><stop offset="1" stop-color="#eeaf9c"></stop></linearGradient><linearGradient xlink:href="#a" id="g" x1="9" x2="119" y1="93.5" y2="93.5" gradientUnits="userSpaceOnUse"></linearGradient><linearGradient id="h" x1="64" x2="64" y1="71" y2="126" gradientUnits="userSpaceOnUse"><stop offset="0" stop-color="#d0e3ff"></stop><stop offset="1" stop-color="#bfe6ff"></stop></linearGradient><linearGradient id="b"><stop offset="0" stop-color="#b14d4c"></stop><stop offset="1" stop-color="#8c2928"></stop></linearGradient><linearGradient xlink:href="#b" id="i" x1="64" x2="64" y1="87.311" y2="134.68" gradientUnits="userSpaceOnUse"></linearGradient><linearGradient xlink:href="#b" id="j" x1="64" x2="64" y1="86.414" y2="77.329" gradientUnits="userSpaceOnUse"></linearGradient><linearGradient id="c"><stop offset="0" stop-color="#eba38d"></stop><stop offset="1" stop-color="#f4bfa6"></stop></linearGradient><linearGradient xlink:href="#c" id="k" x1="48.043" x2="38.721" y1="46.529" y2="36.707" gradientUnits="userSpaceOnUse"></linearGradient><linearGradient xlink:href="#c" id="l" x1="32.042" x2="22.72" y1="46.529" y2="36.707" gradientTransform="matrix(-1 0 0 1 111.999 0)" gradientUnits="userSpaceOnUse"></linearGradient><linearGradient xlink:href="#a" id="m" x1="57.209" x2="83.912" y1="29.677" y2="59.836" gradientUnits="userSpaceOnUse"></linearGradient><linearGradient id="d"><stop offset="0" stop-color="#9d766a"></stop><stop offset=".155" stop-color="#84614f"></stop><stop offset=".333" stop-color="#6e4e38"></stop><stop offset=".523" stop-color="#5f4127"></stop><stop offset=".733" stop-color="#56391d"></stop><stop offset="1" stop-color="#53371a"></stop></linearGradient><linearGradient xlink:href="#d" id="n" x1="83.225" x2="84.031" y1="48.158" y2="34.089" gradientUnits="userSpaceOnUse"></linearGradient><linearGradient id="e"><stop offset="0" stop-color="#f1f7ff"></stop><stop offset="1" stop-color="#e7f4ff"></stop></linearGradient><linearGradient xlink:href="#e" id="o" x1="54" x2="54" y1="65.735" y2="92.211" gradientUnits="userSpaceOnUse"></linearGradient><linearGradient xlink:href="#e" id="p" x1="74" x2="74" y1="60.572" y2="88.931" gradientUnits="userSpaceOnUse"></linearGradient><linearGradient xlink:href="#d" id="q" x1="44.701" x2="44.748" y1="46.567" y2="37.33" gradientUnits="userSpaceOnUse"></linearGradient><linearGradient id="r" x1="88.414" x2="80.598" y1="40.489" y2="12.875" gradientUnits="userSpaceOnUse"><stop offset="0" stop-color="#61472c"></stop><stop offset=".125" stop-color="#5d4327"></stop><stop offset=".51" stop-color="#553a1d"></stop><stop offset="1" stop-color="#53371a"></stop></linearGradient><linearGradient id="s" x1="45.03" x2="69.409" y1="8.215" y2="31.841" gradientUnits="userSpaceOnUse"><stop offset="0" stop-color="#9d766a"></stop><stop offset="1" stop-color="#53371a"></stop></linearGradient><linearGradient id="f"><stop offset="0" stop-color="#0f5e8e"></stop><stop offset="1" stop-color="#174f71"></stop></linearGradient><linearGradient xlink:href="#f" id="t" x1="45" x2="45" y1="72.506" y2="126" gradientUnits="userSpaceOnUse"></linearGradient><linearGradient xlink:href="#f" id="u" x1="22" x2="22" y1="99" y2="121" gradientUnits="userSpaceOnUse"></linearGradient><linearGradient xlink:href="#f" id="v" x1="66" x2="66" y1="72.506" y2="126" gradientTransform="matrix(-1 0 0 1 149 0)" gradientUnits="userSpaceOnUse"></linearGradient><linearGradient xlink:href="#f" id="w" x1="43" x2="43" y1="99" y2="121" gradientTransform="matrix(-1 0 0 1 149 0)" gradientUnits="userSpaceOnUse"></linearGradient><path fill="url(#a)" d="M97 75.769 77 71l-2-10H54l-4 10-19 4.769S9 82.567 9 121.061h19V126h72v-4.938h19c0-38.495-22-45.293-22-45.293z" opacity="1" data-original="url(#a)" class=""></path><path fill="#eba38d" d="m77 71-2-10H54l-1.404 3.457 17.289 17.289z" opacity="1" data-original="#eba38d"></path><path fill="url(#h)" d="M97 75.769 77 71l-13 4-14-4-19 4.769S9 82.567 9 121.061h19V126h72v-4.938h19c0-38.495-22-45.293-22-45.293z" opacity="1" data-original="url(#h)"></path><path fill="url(#b)" d="m69 126-2-39h-6l-2 39z" opacity="1" data-original="url(#b)"></path><path fill="url(#b)" d="M68.218 77c-.212.032-8.224.032-8.436 0 0 0-1.794 5.033-1.782 5.056L61 87h6l3-4.944C69.978 81.98 68.218 77 68.218 77z" opacity="1" data-original="url(#b)"></path><path fill="url(#c)" d="M42.852 33S31.866 40.835 47 53z" opacity="1" data-original="url(#c)"></path><path fill="url(#c)" d="M85.148 33S96.134 40.835 81 53z" opacity="1" data-original="url(#c)"></path><path fill="url(#a)" d="M85.5 33.216C85.5 50.075 77.968 70 64 70c-14.105 0-21.5-19.925-21.5-36.784C42.5 16.358 52.126 8 64 8s21.5 8.358 21.5 25.216z" opacity="1" data-original="url(#a)" class=""></path><path fill="url(#d)" d="M81.591 32.591c.28 1.531.71 2.751.71 2.751s2.177 7.149 1.18 12.83l.121-.16c.918-3.453 2.107-7.067 2.765-10.644z" opacity="1" data-original="url(#d)"></path><path fill="url(#e)" d="m51 67 13 8-9 14-11-17z" opacity="1" data-original="url(#e)"></path><path fill="url(#e)" d="m77 67-13 8 9 14 11-17z" opacity="1" data-original="url(#e)"></path><path fill="url(#d)" d="M42.51 33.93A61.72 61.72 0 0 0 44 46.614c.293-3.95 3-8.614 3-8.614z" opacity="1" data-original="url(#d)"></path><path fill="url(#r)" d="M89 40S64 27 80.466 6.146c0 0 18.225 8.928 8.534 33.854z" opacity="1" data-original="url(#r)" class=""></path><path fill="url(#s)" d="M87.25 12.22S71.479 39.023 39 40c0 0-11.105-38 25-38 0 0 17.291.119 23.25 10.22z" opacity="1" data-original="url(#s)" class=""></path><path fill="#18669b" d="M58 126 44 72.506l-13 3.263S9 82.567 9 121.061h19V126z" opacity="1" data-original="#18669b" class=""></path><path fill="url(#f)" d="m44 72.506-7.07 1.775L32 94l9 11-7 5 17.995 16H58z" opacity="1" data-original="url(#f)"></path><path fill="url(#f)" d="M16 120.956C16 121 28 121 28 121V99z" opacity="1" data-original="url(#f)"></path><path fill="#18669b" d="m70 126 14-53.494 13 3.263s22 6.798 22 45.292h-19V126z" opacity="1" data-original="#18669b" class=""></path><path fill="url(#f)" d="m84 72.506 7.07 1.775L96 94l-9 11 7 5-17.995 16H70z" opacity="1" data-original="url(#f)"></path><path fill="url(#f)" d="M112 120.956c0 .044-12 .044-12 .044V99z" opacity="1" data-original="url(#f)"></path></g></svg>