<svg xmlns="http://www.w3.org/2000/svg" version="1.1" xmlns:xlink="http://www.w3.org/1999/xlink" width="512" height="512" x="0" y="0" viewBox="0 0 682.667 682.667" style="enable-background:new 0 0 512 512" xml:space="preserve" class=""><g><defs><clipPath id="a" clipPathUnits="userSpaceOnUse"><path d="M0 512h512V0H0Z" fill="#000000" opacity="1" data-original="#000000" class=""></path></clipPath></defs><g clip-path="url(#a)" transform="matrix(1.33333 0 0 -1.33333 0 682.667)"><path d="M0 0h-371.562a3 3 0 0 0-3 3v239.996a3 3 0 0 0 3 3H0a3 3 0 0 0 3-3V3a3 3 0 0 0-3-3" style="fill-opacity:1;fill-rule:nonzero;stroke:none" transform="translate(498.98 230.023)" fill="#b8ecbc" data-original="#b8ecbc" class=""></path><path d="M0 0v-136.935s-1.196-23.3 24.785-23.3 26.667 20.629 26.667 20.629.984-20.629 25.03-20.629c24.047 0 22.658 20.629 22.658 31.651C99.14-117.563 99.155 0 99.155 0Z" style="fill-opacity:1;fill-rule:nonzero;stroke:none" transform="translate(52.937 196.217)" fill="#66e0f7" data-original="#66e0f7"></path><path d="M0 0v92.514h69.888v54.264H-68.094s-72.491-8.692-72.491-60.869V22.377h42.098V0z" style="fill-opacity:1;fill-rule:nonzero;stroke:none" transform="translate(152.092 196.217)" fill="#ff9eb1" data-original="#ff9eb1"></path><path d="M0 0v-50.422s51.118-10.03 51.118 25.211C51.118 10.029 0 0 0 0" style="fill-opacity:1;fill-rule:nonzero;stroke:none" transform="translate(221.98 339.153)" fill="#ffdfe5" data-original="#ffdfe5"></path><path d="M0 0c0 23.524-19.07 42.594-42.594 42.594-23.525 0-42.594-19.07-42.594-42.594s19.069-42.594 42.594-42.594C-19.07-42.594 0-23.524 0 0" style="fill-opacity:1;fill-rule:nonzero;stroke:none" transform="translate(145.105 381.747)" fill="#ffdfe5" data-original="#ffdfe5"></path><path d="M0 0s-10.354-58.688 41.422-58.688L42.098 0Z" style="fill-opacity:1;fill-rule:nonzero;stroke:none" transform="translate(11.506 218.594)" fill="#ffdfe5" data-original="#ffdfe5"></path><path d="M0 0c-5.523 0-10-4.477-10-10s4.477-10 10-10 10 4.477 10 10S5.523 0 0 0" style="fill-opacity:1;fill-rule:nonzero;stroke:none" transform="translate(321.636 240.023)" fill="#000000" data-original="#000000" class=""></path><path d="M0 0c0-17.963-14.614-32.578-32.578-32.578-17.964 0-32.578 14.615-32.578 32.578s14.614 32.578 32.578 32.578C-14.614 32.578 0 17.963 0 0m76.876-52.613v-29.531H16.994c-5.46 0-10.021-4.557-10.021-10.023v-86.36h-79.101v69.836c0 5.534-4.486 10.02-10.019 10.02-5.534 0-10.02-4.486-10.02-10.02v-42.658h-22.878v36.278c0 34.438 28.016 62.454 62.453 62.454h10.314v-69.906c0-5.523 4.477-10 10-10s10 4.477 10 10v69.907zm20.039 0h16.343c8.142 0 14.766-6.624 14.766-14.765 0-8.142-6.624-14.766-14.766-14.766H96.915ZM6.973-321.757c0-8.141-6.624-14.765-14.766-14.765-8.141 0-14.765 6.624-14.765 14.765v91.62c0 5.534-4.486 10.02-10.02 10.02-5.533 0-10.019-4.486-10.019-10.02v-91.62c0-8.141-6.624-14.765-14.766-14.765-8.141 0-14.765 6.624-14.765 14.765v123.191H6.973Zm-99.14 110.725c-13.255 4.248-22.878 16.685-22.878 31.332v8.312h22.878zm446.229 314.547H2.286c-12.602 0-22.854-10.252-22.854-22.853V51.218a52.547 52.547 0 0 1-12.01 1.399c-29.013 0-52.617-23.604-52.617-52.617 0-13.375 5.025-25.594 13.276-34.887-36.19-8.724-63.165-41.354-63.165-80.184V-179.7c0-25.765 18.501-47.29 42.917-51.986v-90.071c0-19.192 15.613-34.805 34.805-34.805 9.69 0 18.468 3.981 24.784 10.393 6.317-6.412 15.095-10.393 24.785-10.393 19.191 0 34.805 15.613 34.805 34.805v159.236h114.419c5.534 0 10.02 4.486 10.02 10.02s-4.486 10.02-10.02 10.02H27.012v40.298h86.246c19.192 0 34.805 15.614 34.805 34.805a34.64 34.64 0 0 1-1.947 11.459l71.521 33.44c5.013 2.344 7.177 8.307 4.833 13.32-2.345 5.014-8.308 7.178-13.32 4.833l-75.137-35.131a34.62 34.62 0 0 1-20.755 6.883H8.698C15.79-23.607 20.04-12.294 20.04 0c0 16.959-8.073 32.06-20.569 41.689v38.973a2.818 2.818 0 0 0 2.815 2.814h351.776a2.817 2.817 0 0 0 2.814-2.814v-220.329a2.817 2.817 0 0 0-2.814-2.814h-122.39c-5.534 0-10.02-4.486-10.02-10.02s4.486-10.02 10.02-10.02h122.39c12.602 0 22.854 10.252 22.854 22.854V80.662c0 12.601-10.252 22.853-22.854 22.853" style="fill-opacity:1;fill-rule:nonzero;stroke:none" transform="translate(135.084 382.523)" fill="#000000" data-original="#000000" class=""></path></g></g></svg>