<svg xmlns="http://www.w3.org/2000/svg" version="1.1" xmlns:xlink="http://www.w3.org/1999/xlink" width="512" height="512" x="0" y="0" viewBox="0 0 1.707 1.707" style="enable-background:new 0 0 512 512" xml:space="preserve" fill-rule="evenodd" class=""><g><path d="M.636 1.354H.495a.02.02 0 0 1-.02-.02v-.293a.02.02 0 0 1 .013-.019A.37.37 0 0 1 .614 1h.022a.02.02 0 0 1 .02.02v.315a.02.02 0 0 1-.02.02zm-.121-.04h.1V1.04a.328.328 0 0 0-.1.016v.26zM1.212 1.354H1.07a.02.02 0 0 1-.02-.02V1.02A.02.02 0 0 1 1.07 1h.022a.37.37 0 0 1 .126.023.02.02 0 0 1 .014.019v.293a.02.02 0 0 1-.02.02zm-.122-.04h.102v-.259a.327.327 0 0 0-.1-.016H1.09v.275z" fill="#000000" opacity="1" data-original="#000000" class=""></path><path d="M1.282 1.707H.424a.02.02 0 0 1-.02-.02v-.353a.02.02 0 0 1 .02-.02h.858a.02.02 0 0 1 .02.02v.353a.02.02 0 0 1-.02.02zm-.442-.04V1.58H.713a.02.02 0 0 1-.017-.031l.13-.195H.444v.313H.84zm.044-.313.001.09h.109a.02.02 0 0 1 .017.031l-.116.192h.367v-.313H.884zM.75 1.54h.11a.02.02 0 0 1 .02.02v.055l.078-.13H.866a.02.02 0 0 1-.02-.02l-.001-.067-.095.142z" fill="#000000" opacity="1" data-original="#000000" class=""></path><path d="M.544 1.507a.065.065 0 1 1 0-.13.065.065 0 0 1 0 .13zm0-.09a.025.025 0 1 0 0 .05.025.025 0 0 0 0-.05zM1.163 1.507a.065.065 0 1 1 0-.13.065.065 0 0 1 0 .13zm0-.09a.025.025 0 1 0 0 .05.025.025 0 0 0 0-.05z" fill="#000000" opacity="1" data-original="#000000" class=""></path><path fill="#feb593" d="M.404 1.667v-.112H.166a.904.904 0 0 0-.009.112h.247z" opacity="1" data-original="#feb593"></path><path fill="#f0f0f0" d="M.515 1.314h.1V1.04a.328.328 0 0 0-.1.016v.26zM1.09 1.04v.274h.102v-.259a.327.327 0 0 0-.1-.016H1.09z" opacity="1" data-original="#f0f0f0"></path><path fill="#6b809b" d="m.846 1.465-.001-.067-.095.142h.11a.02.02 0 0 1 .02.02v.055l.078-.13H.866a.02.02 0 0 1-.02-.02z" opacity="1" data-original="#6b809b"></path><path d="M.855.95C.697.95.575.79.526.637A.139.139 0 0 1 .443.513.15.15 0 0 1 .517.386a.02.02 0 0 1 .01-.003h.656a.02.02 0 0 1 .01.003.15.15 0 0 1 .074.127.139.139 0 0 1-.083.125C1.135.79 1.014.95.855.95zM.533.422a.11.11 0 0 0-.05.09c0 .04.028.079.065.09a.02.02 0 0 1 .013.014c.043.14.153.292.294.292s.251-.151.294-.292a.02.02 0 0 1 .013-.013.099.099 0 0 0 .065-.09.11.11 0 0 0-.05-.09H.534z" fill="#000000" opacity="1" data-original="#000000" class=""></path><path d="M1.184.423H.526a.02.02 0 0 1-.02-.02V.38L.53.202C.546.062.705 0 .855 0c.146 0 .31.063.326.202l.022.18v.017a.02.02 0 0 1-.02.024zM.548.383h.615L1.142.207C1.128.092.984.04.855.04.727.04.583.092.57.207L.548.383z" fill="#000000" opacity="1" data-original="#000000" class=""></path><path d="M1.066.55a.194.194 0 0 1-.041-.006.685.685 0 0 0-.17-.019c-.09 0-.138.011-.17.019C.667.547.654.55.642.55.605.55.587.525.529.441L.511.415A.02.02 0 0 1 .527.383h.655a.02.02 0 0 1 .016.032L1.18.44c-.058.084-.076.11-.114.11zM.854.485a.72.72 0 0 1 .18.02c.014.003.024.005.032.005.016 0 .029-.016.078-.087H.565C.614.493.627.51.643.51A.171.171 0 0 0 .675.505C.71.497.761.485.855.485zM1.57 1.707H.137a.02.02 0 0 1-.02-.02c0-.38.223-.688.497-.688h.081a.02.02 0 0 1 .02.02c0 .067.062.122.138.122.076 0 .138-.055.138-.122a.02.02 0 0 1 .02-.02h.081c.273 0 .496.307.497.684a.02.02 0 0 1-.02.023zm-1.413-.04H1.55c-.007-.348-.21-.628-.457-.628H1.03c-.011.08-.086.142-.177.142-.09 0-.166-.062-.177-.142H.614c-.247 0-.45.28-.457.628z" fill="#000000" opacity="1" data-original="#000000" class=""></path><path d="M.695 1.04a.02.02 0 0 1-.02-.02V.865a.02.02 0 0 1 .04 0v.153a.02.02 0 0 1-.02.02zM1.015 1.04a.02.02 0 0 1-.02-.02V.865a.02.02 0 0 1 .04 0v.153a.02.02 0 0 1-.02.02zM1.555 1.555h-.273a.02.02 0 0 1 0-.04h.273a.02.02 0 0 1 0 .04zm-1.13 0H.148a.02.02 0 0 1 0-.04h.275a.02.02 0 0 1 0 .04zM.86.36A.02.02 0 0 1 .84.34V.267H.758A.02.02 0 0 1 .74.237L.846.073a.02.02 0 0 1 .037.01V.16h.07a.02.02 0 0 1 .017.03l-.093.16A.02.02 0 0 1 .86.36zM.794.227H.86a.02.02 0 0 1 .02.02v.017L.918.199H.864a.02.02 0 0 1-.02-.02V.15l-.05.077z" fill="#000000" opacity="1" data-original="#000000" class=""></path><path fill="#fbac00" d="M.88.265.918.199H.864a.02.02 0 0 1-.02-.02V.15l-.05.077H.86a.02.02 0 0 1 .02.02v.017z" opacity="1" data-original="#fbac00" class=""></path><path fill="#fbc946" d="m.97.189-.093.16A.02.02 0 0 1 .84.34V.268H.758A.02.02 0 0 1 .74.237L.846.073a.02.02 0 0 1 .037.01V.16h.07a.02.02 0 0 1 .017.03zM.548.383h.615L1.142.207C1.128.092.984.04.855.04.727.04.583.092.57.207L.548.383z" opacity="1" data-original="#fbc946" class=""></path><path fill="#fbac00" d="M1.144.423H.565C.614.493.627.51.643.51A.171.171 0 0 0 .675.505C.71.497.761.485.855.485a.72.72 0 0 1 .179.02c.014.003.024.005.032.005.016 0 .029-.016.078-.087z" opacity="1" data-original="#fbac00" class=""></path><path fill="#fec9a3" d="M1.025.544a.685.685 0 0 0-.17-.019c-.09 0-.138.011-.17.019C.667.547.654.55.642.55.605.55.587.525.529.441L.522.431a.112.112 0 0 0-.039.082c0 .04.028.079.065.09a.02.02 0 0 1 .013.014.505.505 0 0 0 .149.236.23.23 0 0 0 .145.056.23.23 0 0 0 .15-.06.505.505 0 0 0 .144-.232.02.02 0 0 1 .013-.013.099.099 0 0 0 .065-.09.112.112 0 0 0-.04-.084L1.18.441c-.058.084-.076.11-.114.11a.194.194 0 0 1-.041-.007z" opacity="1" data-original="#fec9a3" class=""></path><path fill="#fec9a3" d="M.995.905a.255.255 0 0 1-.14.044.255.255 0 0 1-.14-.044v.114c0 .067.062.122.138.122.076 0 .138-.055.138-.122a.02.02 0 0 1 .004-.012V.905z" opacity="1" data-original="#fec9a3" class=""></path><g fill="#0a5078"><path d="M.475 1.314V1.07c-.147.067-.26.235-.302.445h.231v-.18a.02.02 0 0 1 .02-.02h.05zM.656 1.04v.274h.394V1.04h-.02c-.011.08-.086.142-.177.142-.09 0-.166-.062-.177-.142h-.02zM1.232 1.07v.244h.05a.02.02 0 0 1 .02.02v.181h.231c-.04-.21-.155-.378-.301-.445z" fill="#0a5078" opacity="1" data-original="#0a5078"></path></g><path fill="#feb593" d="M1.54 1.555h-.238v.112h.247a.904.904 0 0 0-.009-.112z" opacity="1" data-original="#feb593"></path><path fill="#0a5078" d="M.519 1.442a.025.025 0 1 0 .05 0 .025.025 0 0 0-.05 0zM.845 1.398.75 1.54h.11a.02.02 0 0 1 .02.02v.055l.078-.13H.866a.02.02 0 0 1-.02-.02l-.001-.067zM1.163 1.417a.025.025 0 1 0 0 .05.025.025 0 0 0 0-.05z" opacity="1" data-original="#0a5078"></path><path fill="#fbc946" d="M1.098 1.442a.065.065 0 1 1 .13 0 .065.065 0 0 1-.13 0zm-.203.225h.367v-.312H.884l.001.09h.109a.02.02 0 0 1 .017.03l-.116.192zM.696 1.549l.13-.195H.445v.313H.84V1.58H.713a.02.02 0 0 1-.017-.031zm-.152-.172a.065.065 0 1 1 0 .13.065.065 0 0 1 0-.13z" opacity="1" data-original="#fbc946" class=""></path></g></svg>