<svg xmlns="http://www.w3.org/2000/svg" version="1.1" xmlns:xlink="http://www.w3.org/1999/xlink" width="512" height="512" x="0" y="0" viewBox="0 0 512 511" style="enable-background:new 0 0 512 512" xml:space="preserve" class=""><g><path fill="#525252" d="M435.281 141.258a7.697 7.697 0 0 1-7.699-7.7V95.66c0-1.355-1.14-2.5-2.488-2.5h-47.25c-4.25 0-7.696-3.45-7.696-7.703 0-4.254 3.446-7.703 7.696-7.703h47.25c9.86 0 17.883 8.031 17.883 17.906v37.899c0 4.254-3.446 7.699-7.696 7.699zM180.965 330.8c-4.25 0-7.695-3.448-7.695-7.702v-22.29c0-9.874 8.023-17.906 17.886-17.906h47.246a7.7 7.7 0 0 1 7.7 7.703 7.7 7.7 0 0 1-7.7 7.704h-47.246c-1.351 0-2.496 1.144-2.496 2.5v22.289c0 4.254-3.445 7.703-7.695 7.703zM187.89 212.863h-73.745c-4.25 0-7.696 3.45-7.696 7.703s3.446 7.704 7.696 7.704h47.535l-55.856 35.945a7.702 7.702 0 0 0-2.312 10.644 7.686 7.686 0 0 0 10.633 2.317l66.05-42.504v8.41c0 4.254 3.446 7.703 7.696 7.703s7.695-3.45 7.695-7.703v-22.52a7.696 7.696 0 0 0-7.695-7.699zM87.352 220.566a7.703 7.703 0 0 0-7.7-7.703H9.484c-4.25 0-7.695 3.45-7.695 7.703v22.602c0 4.254 3.445 7.703 7.695 7.703a7.7 7.7 0 0 0 7.7-7.703v-8.492l62.468 40.12a7.694 7.694 0 0 0 10.637-2.316 7.71 7.71 0 0 0-2.312-10.644l-52.297-33.57h43.972c4.25.004 7.7-3.446 7.7-7.7zM79.652 115.246H7.695c-4.25 0-7.695 3.45-7.695 7.703v22.574c0 4.254 3.445 7.704 7.695 7.704s7.696-3.45 7.696-7.704v-8.468l32.761 21.074 31.5 20.39a7.688 7.688 0 0 0 10.637-2.309 7.702 7.702 0 0 0-2.309-10.644l-54.074-34.914h45.746c4.25 0 7.696-3.449 7.696-7.703a7.697 7.697 0 0 0-7.696-7.703zM114.145 130.652h45.761l-54.086 34.91a7.71 7.71 0 0 0-2.312 10.645 7.699 7.699 0 0 0 10.637 2.316l64.261-41.464v8.464c0 4.254 3.446 7.704 7.696 7.704a7.7 7.7 0 0 0 7.699-7.704V122.95a7.7 7.7 0 0 0-7.7-7.703h-71.956c-4.25 0-7.696 3.45-7.696 7.703 0 4.254 3.446 7.703 7.696 7.703zm0 0" opacity="1" data-original="#525252"></path><g fill-rule="evenodd"><path fill="#b3b3b3" d="M238.402 394.32v-71.222h-74.148c-5.602 0-10.191 4.593-10.191 10.203v61.02l36.34 9.195zm0 0" opacity="1" data-original="#b3b3b3"></path><path fill="#b3b3b3" d="M342.8 15.156v-4.48C342.8 5.07 338.216.5 332.614.5h-35.156c-5.598 0-10.187 4.566-10.187 10.176v4.48c0 5.606 4.59 10.203 10.187 10.203h35.156c5.602 0 10.188-4.597 10.188-10.203zm0 0" opacity="1" data-original="#b3b3b3"></path><path fill="#999999" d="M174.441 394.32V333.3c0-5.609 4.59-10.202 10.192-10.202h-20.38c-5.6 0-10.19 4.593-10.19 10.203v61.02zm0 0" opacity="1" data-original="#999999"></path><path fill="#b3b3b3" d="M377.844 133.559v-57.47c0-5.605-4.563-10.202-10.16-10.202h-98.54c-5.601 0-10.19 4.597-10.19 10.203v57.469l55.995 27.515zm0 0" opacity="1" data-original="#b3b3b3"></path><path fill="#999999" d="M279.102 133.559v-57.47c0-5.605 4.586-10.202 10.187-10.202h-20.144c-5.602 0-10.192 4.597-10.192 10.203v57.469zm0 0" opacity="1" data-original="#999999"></path><path fill="#e8e8e8" d="M480.336 394.32V142.72c0-5.028-4.129-9.16-9.149-9.16H247.552c-5.051 0-9.149 4.132-9.149 9.16V394.32l122.758 18.356zm0 0" opacity="1" data-original="#e8e8e8" class=""></path><path fill="#cccccc" d="M263.313 290.605V142.72c0-5.028 4.128-9.16 9.18-9.16h-24.938c-5.051 0-9.149 4.132-9.149 9.16V394.32h24.906zm0 0" opacity="1" data-original="#cccccc" class=""></path><path fill="#ffcc73" d="M114.145 394.32V85.43c0-9.485-7.762-17.258-17.23-17.258-9.497 0-17.263 7.773-17.263 17.258v308.89l17.246 13.602zm0 0" opacity="1" data-original="#ffcc73"></path><path fill="#f59556" d="M96.914 394.32V85.43c0-6.36 3.465-11.942 8.602-14.946a17.071 17.071 0 0 0-8.602-2.312c-9.496 0-17.262 7.773-17.262 17.258v308.89zm0 0" opacity="1" data-original="#f59556"></path><path fill="#55b8e6" d="M285.535 188.363c-4.328 0-7.879 3.555-7.879 7.89v15.813c0 4.368 3.551 7.922 7.88 7.922h53.312c4.328 0 7.879-3.554 7.879-7.922v-15.812c0-4.336-3.551-7.89-7.88-7.89zm0 0" opacity="1" data-original="#55b8e6" class=""></path><path fill="#6a96d4" d="M290.965 212.066v-15.812c0-4.336 3.547-7.89 7.906-7.89h-13.336c-4.328 0-7.879 3.554-7.879 7.89v15.812c0 4.364 3.551 7.922 7.88 7.922h13.335c-4.36 0-7.906-3.558-7.906-7.922zm0 0" opacity="1" data-original="#6a96d4" class=""></path><path fill="#55b8e6" d="M384.45 188.246c-4.329 0-7.88 3.559-7.88 7.922v15.812c0 4.336 3.551 7.891 7.88 7.891h53.312c4.36 0 7.91-3.555 7.91-7.89v-15.813c0-4.363-3.55-7.922-7.91-7.922zm0 0" opacity="1" data-original="#55b8e6" class=""></path><path fill="#6a96d4" d="M389.906 211.98v-15.812c0-4.363 3.551-7.922 7.88-7.922h-13.337c-4.328 0-7.879 3.559-7.879 7.922v15.812c0 4.336 3.551 7.891 7.88 7.891h13.335c-4.328 0-7.879-3.555-7.879-7.89zm0 0" opacity="1" data-original="#6a96d4" class=""></path><path fill="#55b8e6" d="M338.848 279.07c4.328 0 7.879-3.554 7.879-7.918V255.34c0-4.336-3.551-7.89-7.88-7.89h-53.312c-4.328 0-7.879 3.554-7.879 7.89v15.812c0 4.364 3.551 7.918 7.88 7.918zm0 0" opacity="1" data-original="#55b8e6" class=""></path><path fill="#6a96d4" d="M290.965 271.148V255.34c0-4.336 3.547-7.89 7.906-7.89h-13.336c-4.328 0-7.879 3.554-7.879 7.89v15.812c0 4.364 3.551 7.918 7.88 7.918h13.335c-4.36 0-7.906-3.554-7.906-7.922zm0 0" opacity="1" data-original="#6a96d4" class=""></path><path fill="#55b8e6" d="M437.762 278.957c4.36 0 7.91-3.559 7.91-7.89v-15.813c0-4.367-3.55-7.922-7.91-7.922h-53.309c-4.332 0-7.879 3.555-7.879 7.922v15.812c0 4.332 3.547 7.891 7.88 7.891zm0 0" opacity="1" data-original="#55b8e6" class=""></path><path fill="#6a96d4" d="M389.906 271.066v-15.812c0-4.367 3.551-7.922 7.88-7.922h-13.337c-4.328 0-7.879 3.555-7.879 7.922v15.812c0 4.332 3.551 7.891 7.88 7.891h13.335c-4.328 0-7.879-3.559-7.879-7.89zm0 0" opacity="1" data-original="#6a96d4" class=""></path><path fill="#fa6969" d="M388.953 394.32v-57.347c0-4.684-3.836-8.528-8.512-8.528h-40.41c-4.676 0-8.515 3.844-8.515 8.528v57.347zm0 0" opacity="1" data-original="#fa6969"></path><path fill="#c92858" d="M349.121 394.32v-57.347c0-4.684 3.84-8.528 8.516-8.528H340.03c-4.676 0-8.515 3.844-8.515 8.528v57.347zm0 0" opacity="1" data-original="#c92858"></path><path fill="#525252" d="M42.45 419.297v-14.774c0-5.605 4.558-10.203 10.16-10.203H16.097c-5.602 0-10.16 4.598-10.16 10.203v14.774c0 5.605 4.558 10.203 10.16 10.203h36.511c-5.601 0-10.16-4.598-10.16-10.203zm0 0" opacity="1" data-original="#525252"></path></g></g></svg>