<svg xmlns="http://www.w3.org/2000/svg" version="1.1" xmlns:xlink="http://www.w3.org/1999/xlink" width="512" height="512" x="0" y="0" viewBox="0 0 133 133" style="enable-background:new 0 0 512 512" xml:space="preserve" class="hovered-paths"><g><path fill="#a4bcd1" d="M81.69 10.872v111.24c0 3.13-1.75 5.85-4.34 7.21-1.12.6-2.42.94-3.79.94H16.13c-1.63 0-3.16-.48-4.43-1.33a8.085 8.085 0 0 1-3.72-6.82V10.872c0-4.49 3.66-8.14 8.15-8.14h57.43c1.63 0 3.15.48 4.44 1.33a8.101 8.101 0 0 1 3.69 6.81z" opacity="1" data-original="#a4bcd1" class="hovered-path"></path><path d="M81.69 80.082v42.03c0 3.13-1.75 5.85-4.34 7.21-1.12.6-2.42.94-3.79.94h-2.31a9.317 9.317 0 0 1-2.52-6.28h-2.27c-2.35 0-4.26-1.91-4.26-4.25v-3.69c0-1.04.38-2 1.01-2.75v-33.21z" opacity="1" fill="#00000005" data-original="#00000005"></path><path fill="#bcdae6" d="m70.098 2.738-37.58 127.525h-16.39a8.051 8.051 0 0 1-4.443-1.323L48.873 2.738zM77.995 4.062 40.808 130.263H35.01L72.59 2.738h.956c1.64 0 3.17.485 4.45 1.324z" opacity="1" data-original="#bcdae6"></path><path fill="#ffffff" d="M77.994 10.876v111.237c0 2.45-1.995 4.445-4.435 4.445H16.13c-2.44 0-4.435-1.995-4.435-4.445V10.876c0-2.44 1.995-4.446 4.435-4.446h10.255c0 2.182 1.778 3.96 3.95 3.96h32.182a3.95 3.95 0 0 0 3.949-3.96h7.092c2.44 0 4.435 2.006 4.435 4.446z" opacity="1" data-original="#ffffff" class=""></path><path fill="#00ffc1" d="M77.97 36.222v65.9l-14.76-9.53-19.48-12.58z" opacity="1" data-original="#00ffc1" class=""></path><path d="M77.97 80.082v22.04l-14.76-9.53v-12.51z" opacity="1" fill="#00000005" data-original="#00000005"></path><path fill="#00ffc1" d="M58.08 93.882 38.19 126.56H16.13c-2.44 0-4.435-1.995-4.435-4.445v-14.38c.01 0 .02-.01.02-.01v-18.96l12.53-16.738 6.368 4.125z" opacity="1" data-original="#00ffc1" class=""></path><path fill="#76819f50" d="m77.97 36.222-34.24 43.79 19.48 12.58 14.76 9.53v4.6l-14.76-9.53-1.87-1.21-18.33 30.59h-4.83l19.9-32.69-33.84-21.85-12.53 16.74v-6.46l9.27-12.39-9.27-5.99v-4.6l28.76 18.57 37.5-47.97z" opacity="1" data-original="#76819f50"></path><path d="M77.97 102.122v4.6l-14.76-9.53v-4.6z" opacity="1" fill="#00000005" data-original="#00000005"></path><path fill="#fcf07b" d="M77.97 106.722v15.41c0 2.45-1.99 4.44-4.45 4.44H43.01l18.33-30.59 1.87 1.21z" opacity="1" data-original="#fcf07b"></path><path d="M77.97 106.722v15.41c0 2.45-1.99 4.44-4.45 4.44h-4.39c-.25-.82-.39-1.69-.4-2.59h-2.27c-2.35 0-4.26-1.91-4.26-4.25v-3.69c0-1.04.38-2 1.01-2.75v-16.1z" opacity="1" fill="#00000005" data-original="#00000005"></path><path fill="#00ffc1" d="m11.71 82.309 9.273-12.387-9.273-5.986z" opacity="1" data-original="#00ffc1" class=""></path><path fill="#ff4b3a" d="M63.101 35.674c0 13.81-18.26 36.267-18.26 36.267S26.578 49.485 26.578 35.674c0-10.085 8.18-18.265 18.265-18.265s18.26 8.18 18.26 18.265z" opacity="1" data-original="#ff4b3a"></path><path fill="#fc6868" d="M29.741 35.673c0 11.31 12.244 28.418 16.681 34.242-.987 1.29-1.582 2.027-1.582 2.027s-18.264-22.46-18.264-36.27c0-10.082 8.18-18.263 18.264-18.263.533 0 1.058.027 1.582.08-9.345.792-16.68 8.634-16.68 18.184z" opacity="1" data-original="#fc6868"></path><path fill="#ffffff" d="M55.627 34.378c0 5.96-4.833 10.793-10.793 10.793-5.95 0-10.783-4.833-10.783-10.793 0-5.95 4.833-10.783 10.783-10.783 5.96 0 10.793 4.833 10.793 10.783z" opacity="1" data-original="#ffffff" class=""></path><path fill="#d4f4ff" d="M53.438 27.866a10.725 10.725 0 0 0-6.527-2.196c-5.948 0-10.785 4.837-10.785 10.785 0 2.454.818 4.722 2.196 6.527a10.785 10.785 0 0 1-4.268-8.607c0-5.949 4.828-10.777 10.777-10.777 3.512 0 6.633 1.672 8.607 4.268z" opacity="1" data-original="#d4f4ff"></path><path fill="#00f3e6" d="M102.809 86.808v27.98h21.209V98.873c0-.428-.135-.844-.385-1.19l-7.242-10.032a2.033 2.033 0 0 0-1.649-.843H102.81z" opacity="1" data-original="#00f3e6"></path><path d="M102.806 112.222h21.207v2.561h-21.207z" opacity="1" fill="#00000005" data-original="#00000005"></path><path fill="#ffffff" d="M106.875 101.858V90.874h6.829l6.247 8.657v2.327z" opacity="1" data-original="#ffffff" class=""></path><path fill="#ffb266" d="M66.206 83.087h36.602v31.702H66.206z" opacity="1" data-original="#ffb266"></path><path fill="#fff" d="M66.205 83.229h36.601v2.561H66.205z" opacity=".31"></path><path d="M66.205 112.222h36.601v2.561H66.205z" opacity=".05"></path><path fill="#76819f" d="M65.2 116.039v3.691c0 .69.566 1.256 1.256 1.256h57.306a1.26 1.26 0 0 0 1.256-1.256v-3.691a1.26 1.26 0 0 0-1.256-1.256H66.456a1.26 1.26 0 0 0-1.256 1.256z"></path><path fill="#a3acbf" d="M65.2 116.039v1.77c0-.69.566-1.255 1.256-1.255h57.306c.69 0 1.256.565 1.256 1.255v-1.77a1.26 1.26 0 0 0-1.256-1.256H66.456a1.26 1.26 0 0 0-1.256 1.256z"></path><path d="M103.672 120.986h19.475a10.145 10.145 0 0 0-5.236-6.203h-8.99a10.164 10.164 0 0 0-5.249 6.203zM68.377 120.986h19.487a10.165 10.165 0 0 0-5.248-6.203h-8.99a10.165 10.165 0 0 0-5.249 6.203z" opacity=".05"></path><path fill="#62809e" d="M110.566 105.536h-3.691"></path><path fill="#ff4b3a" d="M80.187 83.229v10.937l4.313-2.819 4.327 2.82V83.228z"></path><path fill="#fc6868" d="M80.192 91.755v2.411l4.307-2.813 4.332 2.813v-2.41L84.5 88.942z"></path><circle cx="113.413" cy="123.877" r="6.386" fill="#76819f"></circle><path d="M107.025 123.874a6.393 6.393 0 0 0 6.39 6.391 6.325 6.325 0 0 0 5.149-2.637 6.274 6.274 0 0 1-3.742 1.23 6.393 6.393 0 0 1-6.39-6.39c0-1.394.451-2.687 1.23-3.742a6.325 6.325 0 0 0-2.637 5.148z" opacity=".05"></path><circle cx="78.121" cy="123.877" r="6.386" fill="#76819f"></circle><path d="M71.73 123.874a6.393 6.393 0 0 0 11.576 3.742 6.342 6.342 0 0 1-3.779 1.243 6.393 6.393 0 0 1-6.391-6.391c0-1.394.452-2.687 1.23-3.742a6.325 6.325 0 0 0-2.636 5.148z" opacity=".05"></path><circle cx="78.121" cy="123.877" r="2.171" fill="#fff"></circle><circle cx="113.413" cy="123.877" r="2.171" fill="#fff"></circle><path fill="#ff4b3a" d="M32.221 113.051a7.935 7.935 0 0 1-7.934 7.934 7.938 7.938 0 1 1 7.934-7.934z"></path><path fill="#fc6868" d="M30.606 108.243c-1.34-1.01-3-1.61-4.8-1.61-4.39 0-7.94 3.55-7.94 7.94a8 8 0 0 0 1.59 4.78 7.92 7.92 0 0 1-3.11-6.3c0-4.39 3.55-7.94 7.94-7.94 2.58 0 4.87 1.23 6.32 3.13z"></path><g fill="#384b7d"><path d="M2.723 129.765H2.5a.5.5 0 1 0 0 1h.223a.5.5 0 1 0 0-1zM126.66 129.765h-9.695c2.777-1.682 4.08-5.1 2.897-8.28h3.898c.97 0 1.76-.79 1.76-1.76v-3.68c0-.698-.412-1.298-1.002-1.582v-15.59c0-.536-.166-1.05-.48-1.483l-7.242-10.031a2.539 2.539 0 0 0-2.054-1.051H103.31v-3.221a.5.5 0 0 0-.5-.5H82.2V10.885c0-4.77-3.88-8.65-8.65-8.65H16.13c-4.77 0-8.65 3.88-8.65 8.65v111.23c0 3.316 1.878 6.199 4.625 7.65H4.94a.5.5 0 1 0 0 1h121.72a.5.5 0 1 0 0-1zM77.49 82.587H66.206a.5.5 0 0 0-.5.5v31.374a1.758 1.758 0 0 0-1.006 1.584v3.68c0 .97.79 1.76 1.76 1.76h5.212a6.839 6.839 0 0 0-.437 2.392c0 .761.13 1.492.359 2.178H16.13a3.945 3.945 0 0 1-3.94-3.94V10.885a3.95 3.95 0 0 1 3.94-3.95h9.778a4.457 4.457 0 0 0 4.422 3.95h32.19a4.45 4.45 0 0 0 4.412-3.95h6.618a3.95 3.95 0 0 1 3.94 3.95zm-5.255 41.29c0-3.246 2.64-5.887 5.886-5.887s5.886 2.64 5.886 5.887c0 3.245-2.64 5.886-5.886 5.886s-5.886-2.64-5.886-5.886zm12.335-2.392h22.394a6.839 6.839 0 0 0-.437 2.392c0 2.496 1.34 4.68 3.334 5.888H81.673c2.777-1.682 4.08-5.1 2.897-8.28zm28.843 8.278a5.893 5.893 0 0 1-5.886-5.886c0-3.246 2.64-5.887 5.886-5.887s5.886 2.64 5.886 5.887a5.893 5.893 0 0 1-5.886 5.886zm11.107-10.038c0 .426-.333.76-.76.76H119.4c-1.185-2.084-3.422-3.495-5.986-3.495s-4.8 1.411-5.986 3.495h-23.32c-1.185-2.084-3.422-3.495-5.986-3.495s-4.8 1.411-5.986 3.495H66.46a.76.76 0 0 1-.76-.76v-3.68c0-.406.34-.747.744-.757h57.333c.41.01.743.344.743.757v3.68zm-9.778-32.417c.491 0 .956.238 1.244.636l7.242 10.031c.19.263.29.573.29.898v15.412h-20.21V87.308zm-12.433 26.977H66.706V83.587h12.981v10.58a.5.5 0 0 0 .774.418l4.04-2.64 4.054 2.64a.5.5 0 0 0 .773-.419v-10.58h12.98zM80.687 83.729h7.64v9.515l-3.554-2.316a.498.498 0 0 0-.546.001l-3.54 2.313zM16.13 129.765c-4.218 0-7.65-3.432-7.65-7.65V10.885c0-4.218 3.432-7.65 7.65-7.65h57.42c4.219 0 7.65 3.432 7.65 7.65v71.702h-2.71V10.885c0-2.73-2.216-4.95-4.94-4.95h-7.09a.5.5 0 0 0-.5.5 3.449 3.449 0 0 1-3.44 3.45H30.33a3.454 3.454 0 0 1-3.45-3.45.5.5 0 0 0-.5-.5H16.13c-2.724 0-4.94 2.22-4.94 4.95v111.23a4.945 4.945 0 0 0 4.94 4.94h55.888a6.927 6.927 0 0 0 2.44 2.642c-.301.035-.603.068-.908.068zM130.5 129.765h-.34a.5.5 0 1 0 0 1h.34a.5.5 0 1 0 0-1z"></path><path d="M44.841 16.91c-10.346 0-18.764 8.417-18.764 18.764 0 13.83 17.626 35.66 18.377 36.582a.5.5 0 0 0 .775 0c.75-.922 18.373-22.753 18.373-36.582 0-10.347-8.416-18.765-18.76-18.765zm0 54.227c-2.635-3.346-17.764-23.1-17.764-35.463 0-9.795 7.969-17.765 17.764-17.765 9.793 0 17.76 7.97 17.76 17.765 0 12.363-15.125 32.117-17.76 35.463z"></path><path d="M44.834 23.095c-6.221 0-11.283 5.061-11.283 11.283 0 6.227 5.062 11.293 11.283 11.293 6.228 0 11.293-5.066 11.293-11.293 0-6.222-5.065-11.283-11.293-11.283zm0 21.576c-5.67 0-10.283-4.617-10.283-10.293 0-5.67 4.613-10.283 10.283-10.283 5.676 0 10.293 4.613 10.293 10.283 0 5.676-4.617 10.293-10.293 10.293zM38.929 6.94h11.82a.5.5 0 1 0 0-1H38.93a.5.5 0 1 0 0 1zM53.303 6.94h.995a.5.5 0 1 0 0-1h-.995a.5.5 0 1 0 0 1zM106.875 102.358h13.076a.5.5 0 0 0 .5-.5v-2.327a.5.5 0 0 0-.095-.293l-6.247-8.656a.5.5 0 0 0-.405-.208h-6.83a.5.5 0 0 0-.5.5v10.984a.5.5 0 0 0 .5.5zm.5-10.984h6.073l6.003 8.318v1.666h-12.076zM106.875 106.035h3.691a.5.5 0 1 0 0-1h-3.691a.5.5 0 1 0 0 1zM24.288 104.61c-4.655 0-8.442 3.787-8.442 8.442 0 4.65 3.787 8.433 8.442 8.433 4.65 0 8.433-3.783 8.433-8.433 0-4.655-3.783-8.442-8.433-8.442zm0 15.875c-4.103 0-7.442-3.334-7.442-7.433 0-4.104 3.339-7.442 7.442-7.442 4.099 0 7.433 3.338 7.433 7.442 0 4.099-3.334 7.433-7.433 7.433z"></path></g><path fill="#fff" d="m24.475 117.61-1.04-4.026-4.026-1.04 8.39-3.324z"></path></g></svg>