<svg xmlns="http://www.w3.org/2000/svg" version="1.1" xmlns:xlink="http://www.w3.org/1999/xlink" width="512" height="512" x="0" y="0" viewBox="0 0 151 151" style="enable-background:new 0 0 512 512" xml:space="preserve" class=""><g><circle cx="75.5" cy="75.5" r="75.1" fill="#29b36f" opacity="1" data-original="#29b36f" class=""></circle><g fill="#5d618e"><path d="M62.6 70.8v-2.5c-.3 0-7.3.1-12.3 8.6 1.2.8 2.1 1.3 2.1 1.3 4.3-7.2 10-7.4 10.2-7.4zM94.7 73.1l-1-1.8-5.7-.9 3.9 3.9z" fill="#5d618e" opacity="1" data-original="#5d618e"></path><path d="M101 77.4c-3-5.1-7-6-7.3-6.1l-.5 2.5c.1 0 2.4.5 4.7 3.5.2.3.4.5.6.8z" fill="#5d618e" opacity="1" data-original="#5d618e"></path></g><ellipse cx="97" cy="53.4" fill="#eab77e" rx="8.5" ry="2.9" transform="rotate(-82.53 96.94 53.386)" opacity="1" data-original="#eab77e"></ellipse><ellipse cx="53.7" cy="53.5" fill="#eab77e" rx="8.5" ry="2.9" transform="rotate(82.53 53.694 53.42)" opacity="1" data-original="#eab77e"></ellipse><path fill="#eab77e" d="M64 65.2h23v23.7H64z" opacity="1" data-original="#eab77e"></path><path fill="#d6d6d8" d="M55.1 86.1h40.7v55.7H55.1z" opacity="1" data-original="#d6d6d8" class=""></path><path fill="#d64e3c" d="m80.8 85.8-5.4.3-5.4-.3-2.8 3.3s4.4 5.6 5.1 8.2h6.2c.7-2.7 5.1-8.2 5.1-8.2z" opacity="1" data-original="#d64e3c"></path><path fill="#f0582f" d="M62.2 149.4c4.3.8 8.7 1.2 13.3 1.2 4.5 0 8.9-.4 13.2-1.2L78.6 97.3h-6.3z" opacity="1" data-original="#f0582f"></path><path fill="#ffffff" d="M129.7 97.4c-1.2-4.5-4.4-8.2-8.7-10L95.7 77.1l-1.2 7.3v11.1L83.6 129l-20.1 20.6c3.9.6 7.9 1 12 1 24.6 0 46.5-11.9 60.2-30.2z" opacity="1" data-original="#ffffff" class=""></path><path fill="#fcfcfd" d="M87.1 71.8v6.4s-6.6 5.9-11.6 7.9c0 0 12.1 9.6 12.5 15.2 0 0 6.4-16.8 2.6-27.6z" opacity="1" data-original="#fcfcfd"></path><path fill="#f1f3f7" d="m87.1 71.8 3.4 1.9s4.2 24.7-15.1 60.9l-6.3 10.8s22.5-15.5 29.8-25.4l-3.3-9.4 9.2.9s-1.2-28.2-7.5-35-10.3-7-10.3-7z" opacity="1" data-original="#f1f3f7"></path><path fill="#f1f3f7" d="M67.4 129 56.5 95.5V84.4l-1.2-7.3L30 87.4c-4.3 1.8-7.6 5.5-8.7 10l-6 23c13.7 18.3 35.6 30.2 60.2 30.2 3.6 0 7.1-.3 10.6-.8z" opacity="1" data-original="#f1f3f7"></path><path fill="#f1f3f7" d="M63.9 71.8v6.4s6.6 5.9 11.6 7.9c0 0-12.1 9.6-12.5 15.2 0 0-6.4-16.8-2.6-27.6z" opacity="1" data-original="#f1f3f7"></path><path fill="#dededf" d="m63.9 71.8-3.4 1.9s-4.2 24.7 15.1 60.9l6.3 10.8S59.4 129.9 52.1 120l3.3-9.4-9.2.9s1.2-28.2 7.5-35 10.3-7 10.3-7z" opacity="1" data-original="#dededf"></path><path fill="#ffd6ae" d="M96.8 47.1c0 16.5-9.6 30-21.5 30s-21.5-13.4-21.5-30c0-7.5-.6-22 2.7-27.3 3.9-6.2 40.3-8.8 40.3 27.3z" opacity="1" data-original="#ffd6ae" class=""></path><path fill="#362219" d="M49.3 45.8c0 1.3.6 3.6.9 4.9l4-1.1c.2-7.8 2.8-15.6 7.4-21.9.4-.6.8-1.2.7-1.9l6-12.5c-.4-2.4-2.4-4.4-4.7-4.7-2.4-.4-16.1 0-14.7 25.3 0 .9-.6 3.4-.7 3.8-.5 1.6.5 3.3.9 5 .2.9.1 2 .2 3.1z" opacity="1" data-original="#362219" class=""></path><path fill="#180f0a" d="M100.4 50.2c.2-2.1.1-4.3.5-6.4 4.2-24.9-7-34.7-14.6-37.6-5.7-2-12.5-1.2-16.6 3.3l-2.8 2.8c-1.7 3.9-3.2 7.8-4.5 11.8-.4 1.3-.8 2.7-.1 3.9.6 1 1.8 1.3 2.9 1.3s16.1-5.7 28 13c1.8 2.8 2.1 6.3 1.8 9.6-.1.9-.2 1.9.2 2.8.4.8 1.8 1.2 2.2.3-.3-1.2-.6-2.6-.2-3.7.5-1.2 2-2 3-1.2.1.1.2.1.2.1z" opacity="1" data-original="#180f0a"></path><path fill="#362219" d="M56 12.8c-1.1 1.9-8.8 33.8-5 41.6.5-1.4-.1-3.3.8-4.3.7-.8 1.9 0 2.2 1.2s.1 2.5-.1 3.7c.3.8 1.3.5 1.6-.3s.2-1.8.1-2.8c-.2-3.3.2-8.6.9-11.7.3-1.3 1.1-6.4 1.5-7.6V12.8z" opacity="1" data-original="#362219" class=""></path><path fill="#202125" d="M122.4 123.1c1 1.2.8 2.9-.3 3.9-1.2.9-4.8 2.2-5.8 1s1.1-4.5 2.3-5.4 2.8-.7 3.8.5zM88.7 125.8c-.8 1.3-.3 3 .9 3.8 1.3.7 5.1 1.4 5.9.1s-1.8-4.3-3.1-5c-1.3-.8-2.9-.3-3.7 1.1z" opacity="1" data-original="#202125"></path><path fill="#949695" d="M116.3 126.8c-3.1 2.5-5.8 3.4-7.8 2.6-.5-.2-1-.5-1.4-.9 2.1-3.8 2.2-9.4 2.2-11.6 0-2.8 1-5.5 2-7.9l-1.9-.6c-1 2.5-2 5.4-2 8.5 0 1.9-.1 6.7-1.6 10-2-3-2.8-7.8-3.2-9.6-.5-3-2-5.7-3.4-8l-1.8.9c1.3 2.2 2.7 4.8 3.2 7.5.4 2.2 1.3 7.7 4 11.1-.4.4-.8.8-1.3 1.1-1.9 1.1-4.6.7-8.1-1.3l-1 1.7c2.8 1.6 5.3 2.3 7.3 2.1 1-.1 1.9-.4 2.7-.8.6-.4 1.2-.8 1.6-1.4.6.5 1.2.8 1.8 1.1.9.3 1.8.5 2.8.4 2.1-.2 4.4-1.3 6.9-3.3z" opacity="1" data-original="#949695"></path><path fill="#565656" d="m107.1 128.5-1.1 1.6.6.4z" opacity="1" data-original="#565656"></path><path fill="#5d618e" d="M104.3 92c-.1-6.9-1.5-11.6-3.3-14.7l-2.5.8c1.6 2.5 3.2 6.8 3.3 13.9z" opacity="1" data-original="#5d618e"></path><path fill="#494e77" d="M101.7 88.9c.1 1 .1 2 .1 3.2h2.5c0-1.1-.1-2.2-.1-3.2z" opacity="1" data-original="#494e77"></path><ellipse cx="45.9" cy="127.3" fill="#dededf" rx="7.7" ry="8.4" transform="rotate(86.85 45.941 127.212)" opacity="1" data-original="#dededf"></ellipse><ellipse cx="45.9" cy="125.1" fill="#646b79" rx="7.3" ry="7.9" transform="rotate(86.85 45.939 124.956)" opacity="1" data-original="#646b79"></ellipse><ellipse cx="46.1" cy="124.9" fill="#f1f3f7" rx="6.3" ry="6.8" transform="rotate(86.85 46.119 124.769)" opacity="1" data-original="#f1f3f7"></ellipse><path fill="#5d618e" d="M50.4 76.9c-.3.5-.6 1-.8 1.5-3.8 7.7-5.3 21.5-4.5 42.5l2.5-.1c-.8-20.2.7-34.1 4.2-41.2.2-.5.5-.9.7-1.3 0-.1-.9-.7-2.1-1.4z" opacity="1" data-original="#5d618e"></path><ellipse cx="46.5" cy="122.7" fill="#646b79" rx="4" ry="4.5" transform="rotate(86.85 46.53 122.603)" opacity="1" data-original="#646b79"></ellipse><ellipse cx="46.5" cy="122.7" fill="#f1f3f7" rx="3.2" ry="3.6" transform="rotate(86.85 46.531 122.604)" opacity="1" data-original="#f1f3f7"></ellipse><path fill="#5d618e" d="M109.9 93.5c-2-2.2-4.5-3.4-6.7-3.3l-.6.1c-2.2.3-4.5 1.9-6.1 4.3-2.2 3.3-2.7 7.5-1.4 11.3.4 1.3 1.3 2.7 2.1 4.2.2.3.5.4.7.2l1.2-.6c.3-.1.4-.5.2-.8v-.1c-.8-1.4-1.5-2.6-1.9-3.7-1-3.1-.6-6.4 1.1-9.1 1.2-1.9 3-3.1 4.5-3.2 1.6-.1 3.5.8 5 2.5 2.2 2.4 3.1 5.6 2.6 8.8-.2 1.1-.7 2.5-1.3 4v.1c-.1.3 0 .7.4.7l1.3.4c.3.1.6-.1.7-.3.6-1.6 1.2-3.1 1.4-4.5.6-4.1-.5-8-3.2-11z" opacity="1" data-original="#5d618e"></path></g></svg>