<svg xmlns="http://www.w3.org/2000/svg" version="1.1" xmlns:xlink="http://www.w3.org/1999/xlink" width="512" height="512" x="0" y="0" viewBox="0 0 512 512" style="enable-background:new 0 0 512 512" xml:space="preserve" class="hovered-paths"><g><circle cx="252.577" cy="267" r="245" fill="#f3d5d5" opacity="1" data-original="#f3d5d5" class=""></circle><path fill="#aa3584" d="M353.577 65.602v-51c0-5.5-4.07-8.08-9.045-5.734l-22.199 10.469c-4.975 2.346-9.045 8.766-9.045 14.266v32h40.289z" opacity="1" data-original="#aa3584"></path><path fill="#832968" d="M334 65.602V44c0-5.5 4.07-11.92 9.045-14.266l10.532-4.967V14.602c0-5.5-4.07-8.08-9.045-5.734l-22.199 10.469c-4.975 2.346-9.045 8.766-9.045 14.266v32H334z" opacity="1" data-original="#832968"></path><path fill="#2b41ad" d="M337.577 220.5c0 16.773-5.374 32.307-14.467 45.005h30.467V153.602h-40.289v10.632c14.94 14.136 24.289 34.123 24.289 56.266z" opacity="1" data-original="#2b41ad"></path><path fill="#232e7a" d="M334 265.505v-21.728c-2.479 7.857-6.192 15.167-10.89 21.728zM334 197.223v-43.621h-20.712v10.632c9.47 8.959 16.696 20.264 20.712 32.989z" opacity="1" data-original="#232e7a"></path><path fill="#8a94db" d="M313.288 64.602h40.289v90h-40.289z" opacity="1" data-original="#8a94db"></path><path fill="#717ed4" d="M313.288 64.602H334v58h-20.712zM313.288 122.602h40.289v32h-40.289z" opacity="1" data-original="#717ed4"></path><path fill="#5766cc" d="M313.288 122.602H334v32h-20.712z" opacity="1" data-original="#5766cc"></path><path fill="#e279b3" d="M324.378 265.505c8.938-12.745 14.199-28.256 14.199-45.005 0-43.355-35.145-78.5-78.5-78.5-43.354 0-78.5 35.145-78.5 78.5 0 16.749 5.262 32.26 14.199 45.005z" opacity="1" data-original="#e279b3" class="hovered-path"></path><path fill="#de5ca3" d="M226.183 265.505C217.247 252.764 212 237.246 212 220.5c0-38.148 27.216-69.929 63.289-77.014A78.826 78.826 0 0 0 260.077 142c-43.354 0-78.5 35.145-78.5 78.5 0 16.749 5.262 32.26 14.199 45.005z" opacity="1" data-original="#de5ca3" class=""></path><path fill="#db387e" d="M281.626 215.686h-43.098c-4.142 0-7.5-3.357-7.5-7.5s3.358-7.5 7.5-7.5h43.098c4.142 0 7.5 3.357 7.5 7.5s-3.358 7.5-7.5 7.5zM272.553 240.314h-24.951c-4.142 0-7.5-3.357-7.5-7.5s3.358-7.5 7.5-7.5h24.951a7.5 7.5 0 0 1 0 15z" opacity="1" data-original="#db387e" class=""></path><path fill="#b3094e" d="M368.577 228.001h60v37.504h-60z" opacity="1" data-original="#b3094e" class=""></path><path fill="#84004f" d="M368.577 228.001H389v37.504h-20.423z" opacity="1" data-original="#84004f"></path><path fill="#e09380" d="M368.577 208.001h60v21h-60z" opacity="1" data-original="#e09380"></path><path fill="#d76718" d="M368.576 208.001H389v21h-20.424z" opacity="1" data-original="#d76718"></path><path fill="#5766cc" d="m501.506 336.756-27.577-27.576a9.924 9.924 0 0 0-5.1-2.721c-.058 5.172-2.046 10.326-5.983 14.264-3.816 3.816-8.875 5.934-14.262 5.993a9.93 9.93 0 0 0 2.718 5.091l27.578 27.577c3.889 3.89 10.253 3.89 14.142 0l8.486-8.485c3.887-3.89 3.887-10.253-.002-14.143z" opacity="1" data-original="#5766cc"></path><path fill="#3d4ec4" d="m489.456 349.121-27.548-27.548a20.323 20.323 0 0 1-13.324 5.143 9.93 9.93 0 0 0 2.718 5.091l27.578 27.577c3.889 3.89 10.253 3.89 14.142 0l8.486-8.485c.131-.131.246-.271.368-.407-3.863 2.44-9.062 1.987-12.42-1.371z" opacity="1" data-original="#3d4ec4"></path><path fill="#5766cc" d="m177.288 243.532-13.713-24.62c-.125.086-.24.182-.375.257l-63.864 35.569a4.517 4.517 0 0 1-.41.195l5.888 10.571h58.906l8.694-4.842c6.05-3.37 8.245-11.077 4.874-17.13z" opacity="1" data-original="#5766cc"></path><path fill="#2b41ad" d="M99.335 254.738a4.517 4.517 0 0 1-.41.195l5.888 10.571h26.117l-12.057-21.649z" opacity="1" data-original="#2b41ad"></path><path fill="#ffffff" d="M99.822 255.612a5.898 5.898 0 0 1-7.601-1.633L9.741 143.03a5.898 5.898 0 0 1 1.863-8.668l95.442-53.156a5.893 5.893 0 0 1 8.351 2.98L166.3 212.721a5.897 5.897 0 0 1-2.613 7.322z" opacity="1" data-original="#ffffff"></path><path fill="#e6f7fe" d="m112.914 243.354-26.432-35.556a30.507 30.507 0 0 1-13.664-12.784 30.588 30.588 0 0 1-3.535-10.352l-40.515-54.5a6.011 6.011 0 0 1-1.067-4.765l-16.096 8.965a5.898 5.898 0 0 0-1.863 8.668l82.48 110.949a5.898 5.898 0 0 0 7.601 1.633l17.67-9.841a6.01 6.01 0 0 1-4.579-2.417z" opacity="1" data-original="#e6f7fe"></path><circle cx="99.6" cy="180.097" r="30.656" fill="#5766cc" opacity="1" data-original="#5766cc"></circle><path fill="#5766cc" d="M124.579 196.445c-14.792 8.238-33.461 2.926-41.699-11.866-5.464-9.812-4.961-21.325.309-30.372-13.645 8.632-18.324 26.524-10.371 40.807 8.238 14.792 26.908 20.104 41.699 11.866a30.505 30.505 0 0 0 11.556-11.327c-.488.308-.984.608-1.494.892z" opacity="1" data-original="#5766cc"></path><path fill="#edf6ff" d="m107.046 81.206-95.442 53.156a5.898 5.898 0 0 0-1.863 8.668l6.773 9.111 103.062-57.4-4.181-10.556a5.893 5.893 0 0 0-8.349-2.979z" opacity="1" data-original="#edf6ff"></path><path fill="#717ed4" d="M465.592 293.384c-4.109-5.517-10.358-8.478-16.74-8.633l-10.235 40.626c7.05 3.576 15.806 3.136 22.577-1.908 9.522-7.094 11.492-20.563 4.398-30.085z" opacity="1" data-original="#717ed4"></path><path fill="#5766cc" d="M442.662 313.629c-.285-.382-.534-.778-.789-1.172l-3.255 12.92c7.05 3.576 15.806 3.136 22.577-1.908.59-.44 1.15-.903 1.683-1.391-7.521 1.043-15.362-1.931-20.216-8.449z" opacity="1" data-original="#5766cc"></path><path fill="#db387e" d="M447.844 270.07a14.442 14.442 0 0 0-11.391-5.565H68.702a14.443 14.443 0 0 0-14.004 17.971L92.369 432h320.417l37.671-149.523a14.444 14.444 0 0 0-2.613-12.407z" opacity="1" data-original="#db387e" class=""></path><path fill="#b3094e" d="m133.078 430.592-36.64-148.115a14.44 14.44 0 0 1 14.004-17.971h-41.74a14.443 14.443 0 0 0-14.004 17.971l37.315 148.115z" opacity="1" data-original="#b3094e" class=""></path><path fill="#ffffff" d="m407.495 453 5.646-22.408H92.014L97.659 453z" opacity="1" data-original="#ffffff"></path><path fill="#edf6ff" d="M133.078 430.592H92.014L97.659 453h40.962z" opacity="1" data-original="#edf6ff"></path><path fill="#b3094e" d="M407.85 451.592H97.304l1.555 6.174C140.896 491.681 194.359 512 252.577 512s111.681-20.319 153.718-54.234z" opacity="1" data-original="#b3094e" class=""></path><ellipse cx="252.577" cy="354" fill="#ffffff" rx="60.5" ry="37.813" opacity="1" data-original="#ffffff"></ellipse><path fill="#edf6ff" d="M213 354c0-18.652 21.614-34.139 50.039-37.237a96.42 96.42 0 0 0-10.462-.575c-33.413 0-60.5 16.929-60.5 37.813 0 20.885 27.087 37.813 60.5 37.813 3.57 0 7.062-.204 10.462-.575C234.614 388.139 213 372.653 213 354z" opacity="1" data-original="#edf6ff"></path><circle cx="208.577" cy="68" r="68" fill="#717ed4" opacity="1" data-original="#717ed4"></circle><circle cx="208.577" cy="68" r="51.346" fill="#e9a52d" opacity="1" data-original="#e9a52d"></circle><path fill="#e38523" d="M188.539 88.153c-17.309-17.309-19.663-43.894-7.089-63.743a51.43 51.43 0 0 0-9.181 7.283c-20.052 20.052-20.052 52.562 0 72.613 20.053 20.054 52.564 20.053 72.615 0a51.46 51.46 0 0 0 7.089-8.87c-19.814 12.355-46.215 9.938-63.434-7.283z" opacity="1" data-original="#e38523"></path><path fill="#e38523" d="M172.269 31.693c-20.052 20.052-20.052 52.562 0 72.613l72.615-72.613c-20.051-20.053-52.563-20.052-72.615 0z" opacity="1" data-original="#e38523"></path><path fill="#84004f" d="M138.273 451.592H97.304l1.555 6.174a245.279 245.279 0 0 0 48.491 30.523z" opacity="1" data-original="#84004f"></path><path fill="#d76718" d="M181.45 24.41a51.43 51.43 0 0 0-9.181 7.283c-20.052 20.052-20.052 52.562 0 72.613l16.213-16.213c-17.256-17.309-19.592-43.857-7.032-63.683z" opacity="1" data-original="#d76718"></path><path fill="#ddebfd" d="m36.735 140.88-7.968-10.718a6.011 6.011 0 0 1-1.067-4.765l-16.096 8.965a5.898 5.898 0 0 0-1.863 8.668l6.773 9.111z" opacity="1" data-original="#ddebfd"></path><path fill="#b3094e" d="M418.577 127h-40c-5.5.002-10.001 4.501-10 10v72.001h60.001V137c-.001-5.499-4.501-9.999-10.001-10z" opacity="1" data-original="#b3094e" class=""></path><path fill="#84004f" d="M399.001 127h-20.424c-5.5.002-10.001 4.501-10 10v72.001H389V137c0-5.499 4.501-9.998 10.001-10z" opacity="1" data-original="#84004f"></path></g></svg>