<svg xmlns="http://www.w3.org/2000/svg" version="1.1" xmlns:xlink="http://www.w3.org/1999/xlink" width="512" height="512" x="0" y="0" viewBox="0 0 512 512" style="enable-background:new 0 0 512 512" xml:space="preserve" fill-rule="evenodd" class=""><g><g fill="#ec3352"><path d="M362.88 176.86h-34.21c-2.76 0-4.99-2.23-4.99-4.99v-38.18c0-4.21 3.42-7.63 7.63-7.63h28.94c4.2 0 7.63 3.42 7.63 7.63v38.18c0 2.76-2.24 4.99-5 4.99zM345.78 100.54c-2.77 0-5-2.24-5-5V79.09a4.995 4.995 0 1 1 9.99 0v16.45c0 2.76-2.23 5-4.99 5zM385.32 116.92a4.95 4.95 0 0 1-3.53-1.47 4.994 4.994 0 0 1-.01-7.07l11.63-11.63a5.003 5.003 0 0 1 7.07 0 4.985 4.985 0 0 1 0 7.07l-11.62 11.63a4.99 4.99 0 0 1-3.54 1.47zM306.23 116.92a4.95 4.95 0 0 1-3.53-1.47l-11.63-11.63a4.985 4.985 0 0 1 0-7.07 5.003 5.003 0 0 1 7.07 0l11.63 11.63a5.003 5.003 0 0 1-3.54 8.54z" fill="#ec3352" opacity="1" data-original="#ec3352" class=""></path></g><path fill="#cdd9de" d="M475.38 383.43h-24.53c-2.71 0-4.93-2.17-4.99-4.89-.58-26.03-22.23-47.2-48.27-47.2s-47.7 21.17-48.27 47.2a4.999 4.999 0 0 1-5 4.89h-60.36c-2.76 0-4.99-2.24-4.99-5V171.87c0-2.77 2.23-5 4.99-5h112.49c5.51 0 7.85 4.46 9.11 6.85.17.32.34.65.52.97l49.1 88.22h20.2c20.17 0 36.58 16.41 36.58 36.58v47.36c0 20.17-16.41 36.58-36.58 36.58z" opacity="1" data-original="#cdd9de" class=""></path><path fill="#ec3352" d="M475.38 383.43h-24.53c-2.71 0-4.93-2.17-4.99-4.89-.58-26.03-22.23-47.2-48.27-47.2s-47.7 21.17-48.27 47.2a4.999 4.999 0 0 1-5 4.89h-60.36c-2.76 0-4.99-2.24-4.99-5v-77.05h232.99v45.47c0 20.17-16.41 36.58-36.58 36.58z" opacity="1" data-original="#ec3352" class=""></path><path fill="#33b9ef" d="M452.26 272.91H344.33c-8.56 0-15.52-6.97-15.52-15.53v-43.43c0-8.56 6.96-15.52 15.52-15.52h72.02c1.81 0 3.48.98 4.37 2.56l35.68 64.13c.54.8.86 1.76.86 2.79 0 2.76-2.24 5-5 5z" opacity="1" data-original="#33b9ef"></path><path fill="#2c3e50" d="M397.59 437.91c-32.14 0-58.29-26.15-58.29-58.29 0-32.13 26.15-58.28 58.29-58.28 32.13 0 58.28 26.15 58.28 58.28 0 32.14-26.15 58.29-58.28 58.29z" opacity="1" data-original="#2c3e50"></path><path fill="#fefefe" d="M397.59 408.84c-16.12 0-29.22-13.1-29.22-29.21 0-16.12 13.1-29.23 29.22-29.23 16.11 0 29.22 13.11 29.22 29.23 0 16.11-13.11 29.21-29.22 29.21z" opacity="1" data-original="#fefefe" class=""></path><path fill="#2c3e50" d="M503.34 437.9H8.65a4.995 4.995 0 1 1 0-9.99h494.69a4.995 4.995 0 1 1 0 9.99z" opacity="1" data-original="#2c3e50"></path><path fill="#dbe9ee" d="M283.96 383.43H167.68c-2.72 0-4.94-2.18-5-4.89-.57-26.03-22.23-47.2-48.27-47.2s-47.7 21.17-48.27 47.2a5.006 5.006 0 0 1-5 4.89H15.57c-8.56 0-15.53-6.97-15.53-15.53V128.45c0-8.56 6.97-15.53 15.53-15.53h257.87c8.56 0 15.52 6.97 15.52 15.53v249.98c0 2.76-2.24 5-5 5z" opacity="1" data-original="#dbe9ee" class=""></path><path fill="#ec3352" d="M283.96 383.43H167.68c-2.72 0-4.94-2.18-5-4.89-.57-26.03-22.23-47.2-48.27-47.2s-47.7 21.17-48.27 47.2a5.006 5.006 0 0 1-5 4.89H15.57c-8.56 0-15.53-6.97-15.53-15.53v-66.52h288.92v77.05c0 2.76-2.24 5-5 5zM144.5 284.09c-38.58 0-69.97-31.39-69.97-69.97s31.39-69.96 69.97-69.96 69.97 31.38 69.97 69.96-31.39 69.97-69.97 69.97z" opacity="1" data-original="#ec3352" class=""></path><path fill="#2c3e50" d="M114.41 437.91c-32.14 0-58.28-26.15-58.28-58.29 0-32.13 26.14-58.28 58.28-58.28s58.28 26.15 58.28 58.28c0 32.14-26.14 58.29-58.28 58.29z" opacity="1" data-original="#2c3e50"></path><path fill="#fefefe" d="M114.41 408.84c-16.11 0-29.22-13.1-29.22-29.21 0-16.12 13.11-29.23 29.22-29.23s29.22 13.11 29.22 29.23c0 16.11-13.11 29.21-29.22 29.21z" opacity="1" data-original="#fefefe" class=""></path><path fill="#ec3352" d="M260.94 177.84h-29.93c-2.76 0-5-2.24-5-5v-23.68c0-2.76 2.24-5 5-5h29.93c2.76 0 5 2.24 5 5v23.68c0 2.76-2.24 5-5 5zM57.99 177.84H28.06c-2.76 0-5-2.24-5-5v-23.68c0-2.76 2.24-5 5-5h29.93c2.77 0 5 2.24 5 5v23.68c0 2.76-2.23 5-5 5z" opacity="1" data-original="#ec3352" class=""></path><path fill="#fefefe" d="M157.55 252.34h-26.1c-2.76 0-5-2.24-5-5v-15.17h-15.17c-2.76 0-5-2.23-5-5v-26.1c0-2.76 2.24-5 5-5h15.17V180.9c0-2.76 2.24-5 5-5h26.1c2.76 0 5 2.24 5 5v15.17h15.17c2.76 0 5 2.24 5 5v26.1c0 2.77-2.24 5-5 5h-15.17v15.17c0 2.76-2.24 5-5 5z" opacity="1" data-original="#fefefe" class=""></path></g></svg>