<svg xmlns="http://www.w3.org/2000/svg" version="1.1" xmlns:xlink="http://www.w3.org/1999/xlink" width="512" height="512" x="0" y="0" viewBox="0 0 66 66" style="enable-background:new 0 0 512 512" xml:space="preserve" class="hovered-paths"><g><path fill="#ff4823" d="M51.45 42.53C51.45 54.39 41.84 64 29.98 64S8.51 54.39 8.51 42.53 29.98 5.1 29.98 5.1s21.47 25.57 21.47 37.43z" opacity="1" data-original="#ff4823" class="hovered-path"></path><path fill="#fff" d="M29.98 5.1s-.74.88-1.93 2.37c6.02 7.25 20.4 26.41 20.4 35.06a2.99 2.99 0 0 0 2.77 2.98c.14-.98.23-1.96.23-2.98 0-11.86-21.47-37.43-21.47-37.43z" opacity=".25"></path><path d="M34.98 59c-11.86 0-21.47-9.61-21.47-21.47 0-8.37 10.7-23.58 16.99-31.79-.34-.41-.52-.63-.52-.63S8.51 30.67 8.51 42.53 18.12 64 29.98 64c7.21 0 13.57-3.56 17.46-9.01A21.361 21.361 0 0 1 34.98 59z" opacity=".1"></path><path fill="#ff4823" d="M57.49 21.54c0 6.19-5.02 11.21-11.21 11.21s-11.21-5.02-11.21-11.21S46.28 2 46.28 2s11.21 13.35 11.21 19.54z"></path><path fill="#fff" d="M45 3.59c4.16 5.01 10.49 14.05 10.49 17.95 0 1.04.8 1.89 1.81 1.98.12-.64.19-1.3.19-1.98C57.49 15.35 46.28 2 46.28 2s-.5.6-1.28 1.59z" opacity=".25"></path><path d="M50.29 28.74c-6.19 0-11.21-5.02-11.21-11.21 0-3.87 4.37-10.53 7.66-14.98-.29-.35-.46-.55-.46-.55s-11.2 13.35-11.2 19.54 5.02 11.21 11.21 11.21c4.12 0 7.72-2.23 9.66-5.55-1.67.97-3.6 1.54-5.66 1.54z" opacity=".1"></path><path fill="#fff" d="M41.75 40.48h-8.41v-8.41a.56.56 0 0 0-.56-.56h-5.59a.56.56 0 0 0-.56.56v8.41h-8.41a.56.56 0 0 0-.56.56v5.59c0 .31.25.56.56.56h8.41v8.41c0 .31.25.56.56.56h5.59c.31 0 .56-.25.56-.56v-8.41h8.41c.31 0 .56-.25.56-.56v-5.59a.56.56 0 0 0-.56-.56z"></path><path fill="#e6e9ee" d="M46.28 29.74c-.55 0-1-.45-1-1s.45-1 1-1c3.42 0 6.21-2.78 6.21-6.21 0-.55.45-1 1-1s1 .45 1 1c0 4.53-3.68 8.21-8.21 8.21z"></path><path d="M38.6 45.46c-4.68 0-8.92-1.91-11.98-5v.02h-8.41a.56.56 0 0 0-.56.56v5.59c0 .31.25.56.56.56h8.41v8.41c0 .31.25.56.56.56h5.59c.31 0 .56-.25.56-.56v-8.41h8.41c.31 0 .56-.25.56-.56v-1.6c-1.19.27-2.42.43-3.7.43z" opacity=".1"></path></g></svg>