<svg xmlns="http://www.w3.org/2000/svg" version="1.1" xmlns:xlink="http://www.w3.org/1999/xlink" width="512" height="512" x="0" y="0" viewBox="0 0 512 512" style="enable-background:new 0 0 512 512" xml:space="preserve" class=""><g><path fill="#62a4fb" d="M503.675 101.984H8.325A8.325 8.325 0 0 1 0 93.659v-16.65a8.325 8.325 0 0 1 8.325-8.325h495.35A8.325 8.325 0 0 1 512 77.009v16.65a8.325 8.325 0 0 1-8.325 8.325z" opacity="1" data-original="#62a4fb"></path><path fill="#5392f9" d="M503.675 68.683h-33.301a8.325 8.325 0 0 1 8.325 8.325v16.65a8.325 8.325 0 0 1-8.325 8.325h33.301A8.325 8.325 0 0 0 512 93.658v-16.65a8.325 8.325 0 0 0-8.325-8.325z" opacity="1" data-original="#5392f9"></path><path fill="#e6f7fe" d="M16.65 101.984h478.699v376.715H16.65z" opacity="1" data-original="#e6f7fe"></path><path fill="#d3effd" d="M16.65 101.984v27.057h116.553c5.747 0 10.407 4.659 10.407 10.407v10.406c0 26.438 21.432 47.87 47.87 47.87h129.04c26.438 0 47.87-21.432 47.87-47.87v-10.406c0-5.747 4.659-10.407 10.406-10.407h79.089c5.747 0 10.407 4.659 10.407 10.407V478.7h27.057V101.984z" opacity="1" data-original="#d3effd" class=""></path><path fill="#91dafa" d="M49.951 401.796V235.082c0-5.69 4.612-10.302 10.302-10.302h212.502c5.69 0 10.302 4.612 10.302 10.302v166.713c0 5.69-4.612 10.302-10.302 10.302H60.253c-5.69.001-10.302-4.612-10.302-10.301z" opacity="1" data-original="#91dafa"></path><path fill="#75cff9" d="M272.755 224.78H256v187.317h16.755c5.69 0 10.302-4.612 10.302-10.302V235.082c0-5.689-4.612-10.302-10.302-10.302z" opacity="1" data-original="#75cff9"></path><path fill="#91dafa" d="M316.358 478.699V235.082c0-5.69 4.612-10.302 10.302-10.302h125.087c5.69 0 10.302 4.612 10.302 10.302v243.617z" opacity="1" data-original="#91dafa"></path><path fill="#75cff9" d="M451.747 224.78h-16.755v253.919h27.057V235.082c0-5.689-4.612-10.302-10.302-10.302z" opacity="1" data-original="#75cff9"></path><path fill="#62a4fb" d="M503.675 512H8.325A8.325 8.325 0 0 1 0 503.675v-16.65a8.325 8.325 0 0 1 8.325-8.325h495.35a8.325 8.325 0 0 1 8.325 8.325v16.65a8.325 8.325 0 0 1-8.325 8.325z" opacity="1" data-original="#62a4fb"></path><path fill="#5392f9" d="M503.675 478.699h-33.301a8.325 8.325 0 0 1 8.325 8.325v16.65a8.325 8.325 0 0 1-8.325 8.325h33.301a8.325 8.325 0 0 0 8.325-8.325v-16.65a8.325 8.325 0 0 0-8.325-8.325z" opacity="1" data-original="#5392f9"></path><path fill="#e175a5" d="M170.667 149.854V20.813C170.667 9.318 179.985 0 191.48 0h129.04c11.495 0 20.813 9.318 20.813 20.813v129.041c0 11.495-9.318 20.813-20.813 20.813H191.48c-11.495 0-20.813-9.319-20.813-20.813z" opacity="1" data-original="#e175a5"></path><path fill="#de5791" d="M330.823 2.744c-11.688 30.325-31.709 61.274-59.19 88.754-30.998 30.998-66.41 52.509-100.36 63.266 2.21 9.12 10.406 15.902 20.206 15.902H320.52c11.495 0 20.813-9.318 20.813-20.813V20.813c0-7.743-4.237-14.484-10.51-18.069z" opacity="1" data-original="#de5791"></path><path fill="#e6f7fe" d="M301.851 68.683h-23.02a6.18 6.18 0 0 1-6.181-6.181v-23.02a6.18 6.18 0 0 0-6.181-6.181H245.53a6.18 6.18 0 0 0-6.181 6.181v23.02a6.18 6.18 0 0 1-6.181 6.181h-23.02a6.18 6.18 0 0 0-6.181 6.181v20.939a6.18 6.18 0 0 0 6.181 6.181h23.02a6.18 6.18 0 0 1 6.181 6.181v23.02a6.18 6.18 0 0 0 6.181 6.181h20.939a6.18 6.18 0 0 0 6.181-6.181v-23.02a6.18 6.18 0 0 1 6.181-6.181h23.02a6.18 6.18 0 0 0 6.181-6.181V74.864a6.18 6.18 0 0 0-6.181-6.181z" opacity="1" data-original="#e6f7fe"></path><path fill="#f8e883" d="M349.658 369.646a7.499 7.499 0 0 1-7.5-7.5v-20.813c0-4.143 3.357-7.5 7.5-7.5s7.5 3.357 7.5 7.5v20.813c0 4.143-3.357 7.5-7.5 7.5z" opacity="1" data-original="#f8e883"></path><path fill="#d3effd" d="M428.748 277.354a7.481 7.481 0 0 1-5.304-2.196l-11.773-11.773a7.5 7.5 0 0 1 10.607-10.607l11.773 11.773a7.5 7.5 0 0 1-5.303 12.803zM249.756 277.354a7.481 7.481 0 0 1-5.304-2.196l-11.773-11.773a7.5 7.5 0 0 1 10.607-10.607l11.773 11.773a7.5 7.5 0 0 1-5.303 12.803zM232.096 306.789a7.481 7.481 0 0 1-5.304-2.196l-23.547-23.547a7.5 7.5 0 0 1 10.607-10.607l23.547 23.547a7.5 7.5 0 0 1-5.303 12.803z" opacity="1" data-original="#d3effd" class=""></path></g></svg>