<svg xmlns="http://www.w3.org/2000/svg" version="1.1" xmlns:xlink="http://www.w3.org/1999/xlink" width="512" height="512" x="0" y="0" viewBox="0 0 64 64" style="enable-background:new 0 0 512 512" xml:space="preserve" class="hovered-paths"><g><g data-name="Layer 5"><path fill="#9f1d21" d="m44 38 11 4 2.394 4.789A47.055 47.055 0 0 1 62 62H2a47.055 47.055 0 0 1 4.606-15.211L9 42l11-4z" opacity="1" data-original="#9f1d21" class=""></path><path fill="#cc232e" d="m55 42-11-4H24l-5.968 2.17a13.436 13.436 0 0 0-7.426 6.619A47.055 47.055 0 0 0 6 62h56a47.055 47.055 0 0 0-4.606-15.211z" opacity="1" data-original="#cc232e" class=""></path><path fill="#ef7721" d="M23 54h18v8H23z" opacity="1" data-original="#ef7721" class=""></path><path fill="#ef7721" d="M62 62q-.252-2.016-.677-4H2.677Q2.254 59.982 2 62z" opacity="1" data-original="#ef7721" class=""></path><path fill="#feb92d" d="M61.7 59.992v-.024q-.168-.989-.377-1.968H6.677Q6.254 59.982 6 62h56q-.126-1.008-.3-2.008z" opacity="1" data-original="#feb92d" class=""></path><path fill="#4c4c4c" d="m40.19 36.19-2.302-2.302H26.112L23.81 36.19 26 41h12z" opacity="1" data-original="#4c4c4c"></path><path fill="#686868" d="m40.19 36.19-1.9-1.9a15.3 15.3 0 0 1-1.857 2.274A4.9 4.9 0 0 1 32.971 38h-1.942a4.9 4.9 0 0 1-3.464-1.434 15.889 15.889 0 0 1-.81-.894 4.688 4.688 0 0 0-.406 4.593l.335.735H38z" opacity="1" data-original="#686868"></path><path fill="#9f1d21" d="M44 18v3.528A18.949 18.949 0 0 0 46 30a10.242 10.242 0 0 1-7.243 3H25.243A10.242 10.242 0 0 1 18 30a18.949 18.949 0 0 0 2-8.472V18z" opacity="1" data-original="#9f1d21" class=""></path><path fill="#ce8c7a" d="m40.4 20 .3 1.485a15.525 15.525 0 0 1 .3 3.056 15.586 15.586 0 0 1-4.565 11.022A4.894 4.894 0 0 1 32.971 37h-1.942a4.894 4.894 0 0 1-3.464-1.434A15.586 15.586 0 0 1 23 24.543a15.525 15.525 0 0 1 .3-3.056L23.6 20l.4-3h16z" opacity="1" data-original="#ce8c7a" class=""></path><path fill="#f0b8a2" d="M25.3 21.487a15.584 15.584 0 0 0 4.262 14.078 4.838 4.838 0 0 0 6.87 0A15.584 15.584 0 0 0 40.7 21.487L40.4 20l-.4-3H26l-.4 3z" opacity="1" data-original="#f0b8a2" class="hovered-path"></path><path fill="#9f1d21" d="M44 16.839v-.819a12.339 12.339 0 0 0-7.329-11.277 9.844 9.844 0 0 1-2.964-2.036A2.414 2.414 0 0 0 32 2a2.414 2.414 0 0 0-1.707.707 9.844 9.844 0 0 1-2.964 2.036A12.339 12.339 0 0 0 20 16.02v.819z" opacity="1" data-original="#9f1d21" class=""></path><path fill="#cc232e" d="M36.671 4.743a9.844 9.844 0 0 1-2.964-2.036A2.408 2.408 0 0 0 33 2.224a2.408 2.408 0 0 0-.707.483 9.844 9.844 0 0 1-2.964 2.036A12.339 12.339 0 0 0 22 16.02v.819h22v-.819a12.339 12.339 0 0 0-7.329-11.277z" opacity="1" data-original="#cc232e" class=""></path><path fill="#ef7721" d="M32 15a35.68 35.68 0 0 1 9.808 1.374A16.294 16.294 0 0 0 46.28 17H47a2 2 0 0 1 2 2 2 2 0 0 1-2 2h-.72a16.294 16.294 0 0 1-4.472-.626A35.719 35.719 0 0 0 32 19a35.719 35.719 0 0 0-9.808 1.375A16.294 16.294 0 0 1 17.72 21H17a2 2 0 0 1-2-2 2 2 0 0 1 2-2h.72a16.294 16.294 0 0 0 4.472-.626A35.68 35.68 0 0 1 32 15z" opacity="1" data-original="#ef7721" class=""></path><path fill="#feb92d" d="M32 13.162A4.387 4.387 0 0 1 29 9V8h.585A3.416 3.416 0 0 0 32 7a3.415 3.415 0 0 0 2.414 1H35v1a4.387 4.387 0 0 1-3 4.162z" opacity="1" data-original="#feb92d" class=""></path><path fill="#9f1d21" d="M31 41h2v21h-2z" opacity="1" data-original="#9f1d21" class=""></path><path fill="#feb92d" d="M47 17h-.72a16.294 16.294 0 0 1-4.472-.626 35.693 35.693 0 0 0-19.616 0A16.294 16.294 0 0 1 17.72 17H17a1.972 1.972 0 0 0-.973.263A1.993 1.993 0 0 0 18 19h.72a16.294 16.294 0 0 0 4.472-.626 35.668 35.668 0 0 1 19.616 0A16.294 16.294 0 0 0 47.28 19H48a1.972 1.972 0 0 0 .973-.263A1.993 1.993 0 0 0 47 17z" opacity="1" data-original="#feb92d" class=""></path><path fill="#9f1d21" d="m14.426 46.6-4.415-4.967L9 42l-.482.964 4.413 4.964A12.137 12.137 0 0 1 16 56v6h2v-6a14.141 14.141 0 0 0-3.574-9.4zM51.069 47.928l4.413-4.964L55 42l-1.011-.368-4.415 4.968A14.141 14.141 0 0 0 46 56v6h2v-6a12.137 12.137 0 0 1 3.069-8.072z" opacity="1" data-original="#9f1d21" class=""></path><path fill="#4c4c4c" d="M17 62V39.091L20 38l3-1v25z" opacity="1" data-original="#4c4c4c"></path><path fill="#686868" d="M20 38v19a3 3 0 0 0 3 3V37z" opacity="1" data-original="#686868"></path><path fill="#4c4c4c" d="M47 62V39.091L44 38l-3-1v25z" opacity="1" data-original="#4c4c4c"></path><path fill="#686868" d="M44 38v19a3 3 0 0 0 3 3V39.091z" opacity="1" data-original="#686868"></path><g fill="#9f1d21"><path d="M23 35a12.629 12.629 0 0 0 8.752 5.959L32 41l-5 6-1.757-1.172A12.308 12.308 0 0 1 20 38zM41 35a12.629 12.629 0 0 1-8.752 5.959L32 41l5 6 1.757-1.172A12.308 12.308 0 0 0 44 38z" fill="#9f1d21" opacity="1" data-original="#9f1d21" class=""></path></g></g></g></svg>