<svg xmlns="http://www.w3.org/2000/svg" version="1.1" xmlns:xlink="http://www.w3.org/1999/xlink" width="512" height="512" x="0" y="0" viewBox="0 0 277.714 308.936" style="enable-background:new 0 0 512 512" xml:space="preserve" class=""><g><g fill="#f9d7aa"><path d="m193.536 137.73 4.699-15.032s8.268-2.295 12.628 6.598c4.361 8.893-7.05 27.166-16.893 28.702-2.729-6.957-.434-20.268-.434-20.268zM83.581 137.73l-4.699-15.032s-8.268-2.295-12.628 6.598 7.05 27.166 16.893 28.702c2.729-6.957.434-20.268.434-20.268zM100.966 178.046h75.724v85.575h-75.724z" fill="#f9d7aa" opacity="1" data-original="#f9d7aa" class=""></path></g><path fill="#e8ac6b" d="M100.966 178.046v13.799s14.835 36.47 44.758 36.47c14.362 0 24.399-6.074 30.966-12.392v-37.878h-75.724z" opacity="1" data-original="#e8ac6b"></path><path fill="#f9d7aa" d="M197.906 137.771c.021-.628.032-1.256.032-1.884 0-39.038 11.392-83.083-57.908-83.73-.319-.006-1.548-.015-1.551-.015 0 0-1.233.009-1.552.015-69.299.647-57.908 44.692-57.908 83.73 0 .628.011 1.256.031 1.884s-.07 29.052 4.222 36.315 29.712 40.456 53.813 40.456c.022-.022 2.806-.023 2.83 0 24.1 0 49.521-33.193 53.813-40.456s4.222-36.315 4.222-36.315z" opacity="1" data-original="#f9d7aa" class=""></path><path fill="#240703" d="M194.545 71.516C177.232 43.933 138.42 48.5 138.42 48.5s-9.342-1.144-20.948.827c-11.804 2.005-25.949 7.635-34.989 22.188-11.75 18.917-3.6 51.181-3.6 51.181 2.6 2.069 2.85 6.065 2.85 11.317 0 2.502 3.003 2.248 2.752 0-.252-2.248-3.252-22.248 6.748-25.248 2.25-1 .75-8.75-.5-12.5s-2.25-18.75 12-24 27.609 3.75 35.054 3.75c.245 0 .487-.02.727-.056.24.035.482.056.727.056 7.446 0 20.804-9 35.054-3.75s13.25 20.25 12 24-2.75 11.5-.5 12.5c10 3 7 23 6.749 25.248-.252 2.248 2.751 2.502 2.751 0 0-5.252.25-9.248 2.85-11.317 0 .002 8.238-32.318-3.6-51.18z" opacity="1" data-original="#240703"></path><path fill="#1b2d54" d="M277.714 280.05c0-27.042-25.198-36.875-37.183-39.334-11.985-2.458-47.016-11.677-64.071-15.057-9.926 16.217-33.443 22.764-37.603 23.813-4.16-1.049-27.677-7.597-37.603-23.813-17.055 3.38-52.087 12.599-64.071 15.057C25.198 243.175 0 253.008 0 280.05c19.052 8.604 64.728 28.886 138.842 28.886l.015-.015.015.015c74.114 0 119.789-20.282 138.842-28.886z" opacity="1" data-original="#1b2d54" class=""></path><path fill="#0e1e35" d="M254.778 245.64c-5.262-2.602-10.426-4.14-14.247-4.924-11.985-2.458-47.016-11.677-64.071-15.057-1.943 3.174-4.41 5.973-7.147 8.437l72.846 19.521c-.001 0 8.239-.719 12.619-7.977zM22.7 245.64c5.262-2.602 10.426-4.14 14.247-4.924 11.985-2.458 47.016-11.677 64.071-15.057 1.943 3.174 4.41 5.973 7.147 8.437L35.32 253.617s-8.241-.719-12.62-7.977z" opacity="1" data-original="#0e1e35" class=""></path><path fill="#1d1d1d" d="m150.757 308.748 2.056-4.697-8.764-44.683-5.583-2.714-5.417 2.714-8.369 44.583 2.272 4.927c4.815.077 16.841.1 23.805-.13z" opacity="1" data-original="#1d1d1d"></path><path fill="#111111" d="M139.004 241.554h-.549c-3.658 0-13.901 2.323-13.169 12.689.732 2.145 6.036 9.293 13.169 11.438.094-.189.455-.189.549 0 7.133-2.145 12.437-9.293 13.169-11.438.731-10.366-9.511-12.689-13.169-12.689z" opacity="1" data-original="#111111"></path><path fill="#2b3d68" d="M176.691 215.924s-13.733 17.025-38.229 25.193c2.998 6.12 11.96 19.172 13.399 21.17s3.939 6.025 8.106 3.345 21.104-25.649 26.771-37.013c-2.334-3.198-4.641-6.975-10.047-12.695z" opacity="1" data-original="#2b3d68"></path><path fill="#2b3d68" d="M100.912 215.924s13.733 17.025 38.229 25.193c-2.998 6.12-11.96 19.172-13.399 21.17s-3.939 6.025-8.106 3.345-21.012-25.952-26.678-37.316c2.333-3.198 4.611-6.815 9.954-12.392z" opacity="1" data-original="#2b3d68"></path><path fill="#1b2d54" d="M232.766 64.9c-4.168-5.597-9.05-13.099-13.099-21.911s-6.788-18.101-9.407-20.482-24.293-5.954-34.177-9.288C166.205 9.887 144.098.489 138.604.002V.001l-.005.001-.005-.001v.001c-5.494.487-27.601 9.884-37.479 13.217-9.884 3.334-31.557 6.907-34.177 9.288-2.62 2.382-5.359 11.67-9.408 20.482S48.597 59.303 44.429 64.9s-1.905 9.05.119 10.837 25.603 22.03 30.366 22.983c6.192.714 63.643 2.62 63.643 2.62h.08s57.451-1.905 63.643-2.62c4.763-.953 28.342-21.197 30.366-22.983 2.025-1.787 4.288-5.24.12-10.837z" opacity="1" data-original="#1b2d54" class=""></path><path fill="#2b3d68" d="M199.899 83.623c-.635-2.607-23.534-24.834-61.301-22.613-37.768-2.22-60.666 20.006-61.301 22.613l-2.382 11.524 10.797 6.192 52.877-4.287.01-.025.01.025 52.877 4.287 10.797-6.192z" opacity="1" data-original="#2b3d68"></path><path fill="#f6c505" d="M152.87 37.809c-1.63-3.706.208-5.751 1.393-7.293 1.186-1.542.445-2.727-.208-3.291-1.067-.8-2.046-2.135-2.846-3.203s-1.423-1.155-2.668-.533c-3.094 1.238-8.818.016-9.921-.61l-.003-.012a.054.054 0 0 1-.011.005.054.054 0 0 0-.011-.005l-.003.012c-1.102.626-6.827 1.848-9.921.61-1.245-.623-1.868-.535-2.668.533s-1.779 2.402-2.846 3.203c-.652.563-1.393 1.749-.207 3.291s3.024 3.587 1.393 7.293-5.485 9.724-5.247 16.187c.296 4.447 1.838 7.115 7.471 8.953 5.608 1.83 9.83 1.957 12.019 4.181l.009.029.011-.01.011.01.009-.029c2.189-2.224 6.412-2.351 12.019-4.181 5.633-1.838 7.175-4.506 7.471-8.953.238-6.463-3.616-12.481-5.246-16.187zM203.541 283.735c-.842-1.914.107-2.971.72-3.768.613-.796.23-1.409-.107-1.7-.551-.414-1.057-1.103-1.47-1.655-.414-.552-.735-.597-1.378-.275-1.598.639-4.556.008-5.125-.315l-.001-.006-.006.003-.006-.003-.001.006c-.569.324-3.527.955-5.125.315-.643-.322-.965-.277-1.378.275s-.919 1.241-1.47 1.655c-.337.291-.72.904-.107 1.7s1.562 1.853.72 3.768-2.833 5.024-2.711 8.363c.153 2.297.95 3.676 3.86 4.625 2.897.945 5.079 1.011 6.209 2.16l.005.015.006-.005.006.005.005-.015c1.131-1.149 3.312-1.215 6.209-2.16 2.91-.95 3.707-2.328 3.86-4.625.119-3.339-1.872-6.448-2.715-8.363z" opacity="1" data-original="#f6c505"></path><path fill="#1d1d1d" d="M179.893 91.178c-16.672-3.811-41.255-.794-41.255-.794s-24.664-3.017-41.335.794c-16.672 3.811-21.117 6.827-22.388 8.971 0 0 9.632 19.133 63.643 18.498l.04-.108.04.108c54.011.635 63.643-18.498 63.643-18.498-1.271-2.144-5.717-5.161-22.388-8.971z" opacity="1" data-original="#1d1d1d"></path><path fill="#111111" d="m138.637 83.953-.04.026-.04-.026s-33.634-3.334-63.643 11.194v5.001s20.111-9.765 63.643-9.765l.04-.036.04.036c43.532 0 63.643 9.765 63.643 9.765v-5.001c-30.008-14.528-63.643-11.194-63.643-11.194z" opacity="1" data-original="#111111"></path><path fill="#2b3d68" d="m83.311 293.683.019.018c2.223 0 14.622-2.603 21.424-4.068v-5.094a3.326 3.326 0 0 0-3.326-3.326H65.233a3.326 3.326 0 0 0-3.326 3.326v5.102c6.81 1.466 19.166 4.06 21.385 4.06z" opacity="1" data-original="#2b3d68"></path><circle cx="83.331" cy="286.708" r="2.91" fill="#f6c505" opacity="1" data-original="#f6c505"></circle></g></svg>