<svg xmlns="http://www.w3.org/2000/svg" version="1.1" xmlns:xlink="http://www.w3.org/1999/xlink" width="512" height="512" x="0" y="0" viewBox="0 0 512 512" style="enable-background:new 0 0 512 512" xml:space="preserve" class=""><g><path fill="#595959" d="M441.996 481.272H70.004a7.583 7.583 0 0 1-7.583-7.583v-30.17a7.583 7.583 0 0 1 7.583-7.583h371.992a7.583 7.583 0 0 1 7.583 7.583v30.17a7.582 7.582 0 0 1-7.583 7.583z" opacity="1" data-original="#595959" class=""></path><path fill="#454545" d="M417.754 435.936v45.337h24.242a7.583 7.583 0 0 0 7.583-7.583v-30.17a7.583 7.583 0 0 0-7.583-7.583h-24.242z" opacity="1" data-original="#454545"></path><path fill="#bebebe" d="M409.584 389.383H102.416a7.583 7.583 0 0 0-7.583 7.583v38.969h322.336v-38.969a7.585 7.585 0 0 0-7.585-7.583z" opacity="1" data-original="#bebebe"></path><path fill="#aaaaaa" d="M385.343 389.383v46.553h31.825v-38.969a7.583 7.583 0 0 0-7.583-7.583h-24.242z" opacity="1" data-original="#aaaaaa"></path><path fill="#d82e3d" d="M392.856 389.383H119.144V193.945c0-75.583 61.272-136.855 136.855-136.855s136.855 61.272 136.855 136.855v195.438z" opacity="1" data-original="#d82e3d" class=""></path><path fill="#c32430" d="M256 57.09c-5.384 0-10.691.321-15.913.926 68.085 7.885 120.943 65.73 120.943 135.929v195.438h31.825V193.945C392.856 118.362 331.583 57.09 256 57.09z" opacity="1" data-original="#c32430" class=""></path><path fill="#f6f6f6" d="M256 270.347c-8.92 0-16.41-6.717-17.376-15.585L224.229 122.73c-.585-5.368 3.619-10.056 9.02-10.056h45.502c5.4 0 9.605 4.688 9.02 10.056l-14.394 132.033c-.967 8.867-8.457 15.584-17.377 15.584z" opacity="1" data-original="#f6f6f6" class=""></path><circle cx="256" cy="315.897" r="17.902" fill="#f6f6f6" opacity="1" data-original="#f6f6f6" class=""></circle><g fill="#d82e3d"><path d="M87.324 230.736H7.5a7.5 7.5 0 0 1 0-15h79.824a7.5 7.5 0 0 1 0 15zM114.294 102.172a7.474 7.474 0 0 1-5.303-2.197L52.547 43.531a7.5 7.5 0 0 1 0-10.606 7.5 7.5 0 0 1 10.606 0l56.444 56.444a7.5 7.5 0 0 1 0 10.606 7.474 7.474 0 0 1-5.303 2.197zM504.5 230.736h-79.824c-4.143 0-7.5-3.358-7.5-7.5s3.357-7.5 7.5-7.5H504.5c4.143 0 7.5 3.358 7.5 7.5s-3.357 7.5-7.5 7.5zM397.705 102.172a7.5 7.5 0 0 1-5.304-12.803l56.444-56.444a7.5 7.5 0 0 1 10.607 10.606l-56.444 56.444a7.474 7.474 0 0 1-5.303 2.197z" fill="#d82e3d" opacity="1" data-original="#d82e3d" class=""></path></g></g></svg>