<svg xmlns="http://www.w3.org/2000/svg" version="1.1" xmlns:xlink="http://www.w3.org/1999/xlink" width="512" height="512" x="0" y="0" viewBox="0 0 512 512" style="enable-background:new 0 0 512 512" xml:space="preserve" class=""><g><path d="M432.541 157.221 247.666 34.24 62.791 157.221v316.985h369.834V157.221z" style="" fill="#e1effb" data-original="#e1effb"></path><path d="M432.541 157.221 247.666 34.24l-37.943 25.241 176.58 117.462h.083v297.264h46.239V157.221z" style="" fill="#ccdfed" data-original="#ccdfed" class=""></path><path d="M28.218 206.6 244.583 62.672a5.641 5.641 0 0 1 6.251 0l216.364 143.927a18.16 18.16 0 0 0 20.116 0c10.803-7.186 10.803-23.054 0-30.24L250.834 19.05a5.641 5.641 0 0 0-6.251 0L8.102 176.359c-10.803 7.186-10.803 23.054 0 30.24a18.158 18.158 0 0 0 20.116.001z" style="" fill="#ff4c4c" data-original="#ff4c4c"></path><circle cx="247.71" cy="150.351" r="39.964" style="" fill="#ffb125" data-original="#ffb125"></circle><path d="M287.672 150.354c0-2.59-.255-5.12-.726-7.573h-31.697V111.11c-2.443-.467-4.962-.72-7.541-.72s-5.098.254-7.541.72v31.671H208.47a40.111 40.111 0 0 0-.726 7.573c0 2.568.252 5.076.715 7.509h31.709v31.735c2.443.467 4.962.72 7.541.72s5.098-.254 7.541-.72v-31.735h31.709a40.29 40.29 0 0 0 .713-7.509z" style="" fill="#ff901d" data-original="#ff901d"></path><path d="M183.89 301.351h127.63v192.54H183.89z" style="" fill="#ffb125" data-original="#ffb125"></path><path d="M247.71 301.351h63.816v192.54H247.71z" style="" fill="#ff901d" data-original="#ff901d"></path><path d="M469.066 463.474H26.35c-8.401 0-15.211 6.81-15.211 15.211s6.81 15.211 15.211 15.211h442.716c8.401 0 15.211-6.81 15.211-15.211s-6.81-15.211-15.211-15.211z" style="" fill="#2d5871" data-original="#2d5871"></path><path d="M494.357 197.56c.118-.334.237-.667.335-1.006.055-.19.094-.383.142-.574.086-.341.177-.68.243-1.024.037-.191.058-.385.086-.577.066-.444.135-.888.166-1.336.031-.443.072-.886.077-1.33.002-.187-.012-.372-.016-.559a18.093 18.093 0 0 0-.042-1.116c-.014-.181-.043-.361-.062-.542a19.363 19.363 0 0 0-.147-1.126c-.03-.173-.071-.343-.105-.516a17.79 17.79 0 0 0-.258-1.132c-.044-.164-.097-.326-.146-.49a18.012 18.012 0 0 0-.371-1.124c-.058-.156-.122-.309-.185-.464a14.932 14.932 0 0 0-.708-1.542c-.188-.363-.388-.72-.602-1.072-.043-.07-.076-.144-.12-.213l-.008.011a18.04 18.04 0 0 0-5.325-5.47l-23.627-15.717-2.646 4.063c-4.624 7.1-14.152 9.064-21.207 4.371L250.834 43.351a5.641 5.641 0 0 0-6.251 0L28.218 187.279a18.16 18.16 0 0 1-20.116 0 18.097 18.097 0 0 1-5.333-5.46c-4.999 7.963-3.22 19.109 5.354 24.795 6.184 4.102 14.3 3.84 20.478-.27L244.583 62.672a5.641 5.641 0 0 1 6.251 0l216.364 143.927a18.16 18.16 0 0 0 20.116 0c.468-.311.907-.644 1.334-.987.149-.119.292-.242.436-.364.271-.233.533-.472.786-.716.153-.147.311-.291.458-.442.306-.316.599-.64.877-.972l.016-.024a17.82 17.82 0 0 0 2.296-3.525l.039-.06c.067-.136.118-.278.181-.416.148-.322.296-.643.423-.972.072-.186.131-.374.197-.561z" style="" fill="#f33939" data-original="#f33939"></path><path d="M484.178 476.997c-.013-.112-.035-.22-.051-.331-.061-.458-.138-.91-.239-1.354-.018-.079-.041-.155-.06-.234a14.86 14.86 0 0 0-.423-1.428l-.033-.09a15.236 15.236 0 0 0-.627-1.494v-.001c-2.463-5.08-7.654-8.592-13.679-8.592h-31.028v6.789c0 5.741-4.654 10.395-10.395 10.395H26.35c-6.025 0-11.216-3.512-13.679-8.592a15.107 15.107 0 0 0-1.414 8.514c.958 7.687 7.754 13.316 15.501 13.316h442.308c8.401 0 15.211-6.81 15.211-15.211 0-.57-.037-1.132-.099-1.687z" style="" fill="#1d4859" data-original="#1d4859" class=""></path><path d="M345.827 493.896h-40.678V209.79c0-11.233 9.106-20.339 20.339-20.339 11.233 0 20.339 9.106 20.339 20.339v284.106z" style="" fill="#ff6d3a" data-original="#ff6d3a"></path><path d="M325.488 189.451a20.22 20.22 0 0 0-10.169 2.743c6.073 3.518 10.169 10.072 10.169 17.596v284.106h20.339V209.79c0-11.232-9.107-20.339-20.339-20.339z" style="" fill="#ed5729" data-original="#ed5729"></path><path d="M499.223 393.057H151.752c-7.057 0-12.777-5.72-12.777-12.777V247.56c0-7.057 5.72-12.777 12.777-12.777h347.471c7.057 0 12.777 5.72 12.777 12.777v132.72c0 7.056-5.72 12.777-12.777 12.777z" style="" fill="#61aff6" data-original="#61aff6" class=""></path><path d="M499.223 234.782h-33.462v126.059c0 7.057-5.72 12.777-12.777 12.777H138.975v6.662c0 7.057 5.721 12.777 12.777 12.777h347.471c7.057 0 12.777-5.721 12.777-12.777V247.56c0-7.057-5.72-12.778-12.777-12.778z" style="" fill="#55a2f0" data-original="#55a2f0" class=""></path><path d="M240.18 318.635c8.195-2.513 14.314-9.288 14.314-21.854 0-17.373-11.582-22.836-25.896-22.836h-21.634c-2.732 0-4.589 2.077-4.589 4.37v71.023c0 2.951 3.606 4.48 7.102 4.48 3.605 0 7.102-1.53 7.102-4.48v-28.519h9.179l15.516 30.158c1.093 2.186 2.951 3.388 4.917 3.388 4.151 0 8.85-3.824 8.85-7.43 0-.437-.109-1.203-.546-1.749l-14.315-26.551zm-11.583-8.959h-12.019v-23.274h12.019c7.103 0 11.691 3.06 11.691 11.691.001 8.633-4.588 11.583-11.691 11.583zM311.962 286.402c2.841 0 4.48-2.951 4.48-6.338 0-2.95-1.421-6.118-4.48-6.118h-38.899c-3.169 0-6.228 1.53-6.228 4.48v70.913c0 2.951 3.06 4.48 6.228 4.48h38.899c3.06 0 4.48-3.17 4.48-6.119 0-3.388-1.64-6.337-4.48-6.337h-30.923V319.4h16.609c3.06 0 4.48-2.95 4.48-5.463 0-2.95-1.64-5.682-4.48-5.682h-16.609v-21.853h30.923zM372.82 273.946c-3.606 0-7.102 1.311-7.102 4.37v43.925l-21.089-40.755c-3.387-6.447-5.463-7.54-10.599-7.54-3.605 0-7.102 1.421-7.102 4.48v70.913c0 2.951 3.497 4.48 7.102 4.48 3.497 0 7.102-1.53 7.102-4.48v-43.925l23.493 43.925c1.858 3.387 4.807 4.48 8.195 4.48 3.497 0 7.102-1.53 7.102-4.48v-71.023c0-3.06-3.606-4.37-7.102-4.37zM440.668 273.946h-46.22c-3.06 0-4.48 3.279-4.48 6.337 0 3.497 1.64 6.447 4.48 6.447h16.062v62.609c0 2.951 3.497 4.48 7.103 4.48 3.497 0 7.102-1.53 7.102-4.48V286.73h15.953c2.841 0 4.479-3.06 4.479-6.447.001-3.059-1.419-6.337-4.479-6.337z" style="" fill="#ffffff" data-original="#ffffff" class=""></path></g></svg>