<svg xmlns="http://www.w3.org/2000/svg" version="1.1" xmlns:xlink="http://www.w3.org/1999/xlink" width="512" height="512" x="0" y="0" viewBox="0 0 512 512" style="enable-background:new 0 0 512 512" xml:space="preserve" class=""><g><path d="M249.223 21.43H56.633C30.878 21.43 10 42.191 10 67.802v344.317c0 25.611 20.878 46.372 46.633 46.372h222.51c25.755 0 46.633-20.761 46.633-46.372V109.918L249.223 21.43z" style="" fill="#ffffff" data-original="#ffffff"></path><path d="M325.775 150.693a158.993 158.993 0 0 0-7.947-.199c-41.568 0-80.637 16.215-110.009 45.658-60.482 60.63-60.482 159.281 0 219.911 21.377 21.429 47.89 35.85 76.765 42.114 23.191-2.68 41.191-22.279 41.191-46.059V150.693zM249.223 109.918h76.552L249.223 21.43z" style="" fill="#d2dcfd" data-original="#d2dcfd"></path><path d="m201.074 366.323-9.631 30.423H84.387V335.9h80.92l28.431 13.324z" style="" fill="#fdcb50" data-original="#fdcb50"></path><path d="M191.443 396.746h67.676V335.9h-93.812c4.159 21.523 12.871 42.328 26.136 60.846z" style="" fill="#fd8f01" data-original="#fd8f01"></path><ellipse cx="317.827" cy="306.108" rx="110.49" ry="110.759" style="" fill="#67ccd1" data-original="#67ccd1" class=""></ellipse><path d="M495.596 484.136c-8.551 8.572-22.429 8.58-30.989.017l-56.715-56.73 30.955-31.031 56.732 56.747c8.555 8.557 8.562 22.432.017 30.997z" style="" fill="#fd7da0" data-original="#fd7da0"></path><path d="M325.775 192.868v-82.95L249.223 21.43H56.633C30.878 21.43 10 42.191 10 67.802v344.317c0 25.611 20.878 46.372 46.633 46.372h222.51c23.453 0 42.862-17.217 46.144-39.634" style="stroke-width:20;stroke-linecap:round;stroke-linejoin:round;stroke-miterlimit:10;" fill="none" stroke="#052a75" stroke-width="20" stroke-linecap="round" stroke-linejoin="round" stroke-miterlimit="10" data-original="#052a75"></path><path d="M84.387 224.245h156.097M84.387 274.884h125.817M84.387 173.606h174.731M84.387 122.966h101.132" style="stroke-width:20;stroke-linecap:round;stroke-linejoin:round;stroke-miterlimit:10;" fill="none" stroke="#fd6050" stroke-width="20" stroke-linecap="round" stroke-linejoin="round" stroke-miterlimit="10" data-original="#fd6050"></path><ellipse cx="317.827" cy="306.108" rx="110.49" ry="110.759" style="stroke-width:20;stroke-linecap:round;stroke-linejoin:round;stroke-miterlimit:10;" fill="none" stroke="#052a75" stroke-width="20" stroke-linecap="round" stroke-linejoin="round" stroke-miterlimit="10" data-original="#052a75"></ellipse><path d="m397.875 386.351 23.122 23.178M495.596 484.136h0c-8.551 8.572-22.429 8.58-30.989.017l-56.715-56.73 30.955-31.031 56.732 56.747c8.555 8.557 8.562 22.432.017 30.997z" style="stroke-width:20;stroke-linecap:round;stroke-linejoin:round;stroke-miterlimit:10;" fill="none" stroke="#052a75" stroke-width="20" stroke-linecap="round" stroke-linejoin="round" stroke-miterlimit="10" data-original="#052a75"></path><path d="m345.121 278.647-54.587 54.923M345.121 333.57l-54.587-54.923" style="stroke-width:20;stroke-linecap:round;stroke-linejoin:round;stroke-miterlimit:10;" fill="none" stroke="#ffffff" stroke-width="20" stroke-linecap="round" stroke-linejoin="round" stroke-miterlimit="10" data-original="#ffffff"></path></g></svg>